<svg id="Layer_1" data-name="Layer 1" xmlns="http://www.w3.org/2000/svg" viewBox="0 0 1424 1649.89"><defs><style>.cls-1{fill:#39f;}.cls-2{fill:#32c9ff;}.cls-3{fill:#191224;}.cls-4{fill:#352f3f;}.cls-5{fill:#5d5965;}.cls-6{fill:#f60;}.cls-7{fill:#ffaf79;}</style></defs><title>logo</title><path class="cls-1" d="M1403.43,459.71a50.14,50.14,0,0,0-25.33-9.43c-8.55-.66-17.18.45-25.68-.82-17.55-3.46-32.79-16.71-38.2-33.82-2.19-6.31-2.6-13-2.37-19.67,0-57-.07-113.91.05-170.87h0q-200.48.18-400.94.06c-21.17.12-41.06-15.14-47-35.36-3.27-10-1.76-20.53-2.1-30.8.42-19.27-1.65-38.76-8-57a150.1,150.1,0,0,0-63.27-79.44C767,7.82,739.16.34,711.42.11h0a150,150,0,0,0-148,129.83c-2.31,16.3-.88,32.8-1.51,49.19-1.35,19.43-15.22,37.16-33.69,43.28-9.67,3.59-20.1,2.53-30.2,2.67q-193,0-386,0,.11,81.46,0,162.94c-.13,8.35.68,16.89-1.69,25a50.28,50.28,0,0,1-37.24,35.83c-10.82,2.63-22.09-.06-32.95,2.23A50.06,50.06,0,0,0,5.81,476.85a52.1,52.1,0,0,0-5.81,23v650.6a52.28,52.28,0,0,0,4.52,20.13,50.08,50.08,0,0,0,32.42,27.59c12.72,3.68,26.31-.32,39,3.72a50.17,50.17,0,0,1,33.93,33.34c3.05,9.27,2.09,19.11,2.23,28.7q0,80.49,0,161,178-.1,356,0c7.08.07,14.3.15,21.13-2,17.32-5,31.55-20.16,34.64-38,.17-26.12.1-52.26,0-78.39.34-11.16-1.22-22.57,1.8-33.48,2.61-10.31,4-21.27,10.11-30.29,5.8-8.34,11.48-17.11,19.77-23.23,6.07-4.36,11.88-9.26,18.78-12.27,5.72-2.67,12-3.75,18.08-5.24,5.79-1.31,11.55-3.09,17.55-3.13,6.27,0,12.53,0,18.8,0h.53q9.13,0,18.26,0c48.83.22,97.67,0,146.5.1,10.28.13,20.67-.65,30.83,1.41h0c9,2.54,18.55,3.55,27,7.92,6,3,11.21,7.36,16.67,11.26,8.3,6.13,14,14.92,19.8,23.28,6.15,9.13,7.51,20.23,10.18,30.66a51.2,51.2,0,0,1,1.72,12.57c.05,29.69,0,59.39,0,89.08a50,50,0,0,0,19.92,39.69,50.69,50.69,0,0,0,29.92,10.06h1.69q178.3.12,356.6.07h3.55c-.12-57.3,0-114.59-.06-171.89a50.48,50.48,0,0,1,4.7-24.45c6.64-14.37,20.43-24.86,35.88-28,8.5-1.25,17.12-.22,25.67-.81a49.48,49.48,0,0,0,24.11-8.52,50.43,50.43,0,0,0,21.8-40.75V498.85A50.74,50.74,0,0,0,1403.43,459.71Z" transform="translate(0 -0.11)"/><path class="cls-2" d="M614.38,36.29a149.61,149.61,0,0,1,97-36.18,39.6,39.6,0,0,1-7,2.37c-31,5.79-59.31,23.54-78.64,48.33A135.15,135.15,0,0,0,597.06,132c-.15,39.35,0,78.71-.07,118.07a50,50,0,0,1-50,50c-53.69.05-107.38-.05-161.07.05-19.92.13-38.82,13.52-45.67,32.2A51,51,0,0,0,337,351c0,16.33,0,32.67,0,49a50,50,0,0,0,50,50q472,0,944,0c7.14-.1,14.31.39,21.43-.54,8.5,1.27,17.13.16,25.68.82a50.14,50.14,0,0,1,25.33,9.43A50.74,50.74,0,0,1,1424,498.85v651.62a50.43,50.43,0,0,1-21.8,40.75,49.48,49.48,0,0,1-24.11,8.52c-8.55.59-17.17-.44-25.67.81-11.1-1.16-22.29-.29-33.42-.55H879.05c-18.07.19-36.15-.39-54.2.31-10.16-2.06-20.55-1.28-30.83-1.41-48.83-.06-97.67.12-146.5-.1-9.78-1.55-19.71-.51-29.56-.8H397c-8.31.07-16.88-.72-24.88,2.1C352.34,1206,337.25,1225.24,337,1246q0,22,0,44.06c0,7.73-.42,15.64,1.77,23.17A50.22,50.22,0,0,0,373,1348c8.44,2.63,17.36,1.92,26.07,2H461c8.49-.14,17.15.67,25.45-1.57a50.17,50.17,0,0,0,31.81-25.15c2.82-5.22,4.37-11,5.59-16.79.07,26.13.14,52.27,0,78.39-3.09,17.86-17.32,33-34.64,38-6.83,2.17-14.05,2.09-21.13,2q-178,0-356,0,.11-80.49,0-161c-.14-9.59.82-19.43-2.23-28.7a50.17,50.17,0,0,0-33.93-33.34c-12.67-4-26.26,0-39-3.72a50.08,50.08,0,0,1-32.42-27.59A52.28,52.28,0,0,1,0,1150.48V499.88a52.1,52.1,0,0,1,5.81-23A50.06,50.06,0,0,1,40.2,451.08c10.86-2.29,22.13.4,33-2.23A50.28,50.28,0,0,0,110.39,413c2.37-8.14,1.56-16.68,1.69-25q0-81.47,0-162.94,193,.1,386,0c10.1-.14,20.53.92,30.2-2.67,18.47-6.12,32.34-23.85,33.69-43.28.63-16.39-.8-32.89,1.51-49.19A149.8,149.8,0,0,1,614.38,36.29ZM84.19,487.19a52.74,52.74,0,0,0-14.79,3.22A49.81,49.81,0,0,0,38.89,524c-2.55,9.12-1.79,18.66-1.89,28v541.94c.25,10.18-.85,20.51,1.49,30.53a50,50,0,0,0,32.31,35.66c11.3,4,23.46,2.62,35.21,2.87H1320c10.56-.18,21.41.9,31.65-2.37a50,50,0,0,0,33-33c3.09-9.6,2.28-19.78,2.37-29.7V547c0-5.65.28-11.33-.68-16.91A49.71,49.71,0,0,0,1356,490.94c-7.87-3.34-16.54-4.17-25-3.94H214C170.73,487.13,127.45,486.75,84.19,487.19Z" transform="translate(0 -0.11)"/><path class="cls-3" d="M1387,550c0-.43,0-.86,0-1.29V547c0-5.65.28-11.33-.68-16.91A49.71,49.71,0,0,0,1356,490.94c-7.87-3.34-16.54-4.17-25-3.94h-5.5c-.47,0-.94,0-1.42,0H100c-1.3,0-2.6.06-3.89.14l-11.87.09a52.74,52.74,0,0,0-14.79,3.22A49.81,49.81,0,0,0,38.89,524C36.7,531.83,37,540,37,548.05c0,.64,0,1.27,0,1.91v550.09c0,.66,0,1.32,0,2-.09,7.53-.23,15.07,1.49,22.45a50,50,0,0,0,32.31,35.66c8.8,3.15,18.13,3,27.37,2.87.6,0,1.19,0,1.78,0H1324c.69,0,1.37,0,2,0,8.61.07,17.3.28,25.59-2.37a50,50,0,0,0,33-33c2.73-8.49,2.42-17.44,2.37-26.26,0-.46,0-.91,0-1.37Z" transform="translate(0 -0.11)"/><path class="cls-4" d="M350.31,522.23c5.54-.55,11.15-.14,16.72-.23,5-.21,10,3.78,10.22,9s.14,10.08,0,15.11a9.82,9.82,0,0,1-9.17,9.09c-5.38.17-10.78.15-16.17,0-4.71-.18-9-4.3-9-9.09-.12-5.06-.13-10.13,0-15.18C342.94,526.7,346.34,523.15,350.31,522.23Z" transform="translate(0 -0.11)"/><path class="cls-4" d="M404.27,522.31c5.9-.69,11.91-.23,17.85-.27A9.76,9.76,0,0,1,431.34,533c-.68,6,1.65,13-1.93,18.36-4.6,6-13,3.31-19.41,3.95-5,.62-10.9-1.43-12.56-6.62-1.17-5.49-.52-11.18-.57-16.74A9.79,9.79,0,0,1,404.27,522.31Z" transform="translate(0 -0.11)"/><path class="cls-4" d="M458.37,522.32c5.51-.72,11.13-.19,16.69-.33,5.06-.28,10.41,3.72,10.47,9,.13,5,.12,10,0,15,0,4.27-3.52,8-7.6,8.91-4,.65-8,.21-12,.35-4.21.08-9.09.32-12.19-3.08-3.58-3.44-2.67-8.75-2.76-13.2.13-3.47-.41-7,.52-10.42A10,10,0,0,1,458.37,522.32Z" transform="translate(0 -0.11)"/><path class="cls-4" d="M512.29,522.39c5.53-.88,11.2-.21,16.79-.41,4.55-.31,9.38,2.75,10.32,7.35.47,4.55.09,9.14.23,13.7.13,3.19-.08,6.72-2.56,9.05-3.53,4.07-9.35,3.07-14.12,3.16-4.88-.23-10.65,1.09-14.56-2.63-5.18-4.76-2.38-12.46-3.12-18.6C504.45,529,507.24,523.72,512.29,522.39Z" transform="translate(0 -0.11)"/><path class="cls-4" d="M566.36,522.41c5.5-.93,11.15-.21,16.71-.43,5.19-.44,10.6,3.61,10.79,9,.16,5,.15,10,0,15.07a9.76,9.76,0,0,1-8.74,9.07c-4,.31-8.09,0-12.13.15s-8.32-.08-11.06-3.24c-3.26-3.13-2.59-7.95-2.65-12,.09-3.5-.23-7,.27-10.49C560.22,526.09,563.15,523.48,566.36,522.41Z" transform="translate(0 -0.11)"/><path class="cls-4" d="M620.35,522.44c5.49-1,11.16-.21,16.73-.47,5.12-.45,10.86,3.45,10.75,8.93.09,5.07.08,10.14,0,15.21.14,5.11-4.89,9.2-9.79,9.1s-10.07.11-15.1,0c-4.81-.06-9.32-4.23-9.32-9.11-.13-4.37,0-8.74-.06-13.11A9.79,9.79,0,0,1,620.35,522.44Z" transform="translate(0 -0.11)"/><path class="cls-4" d="M675.3,522.25c5.22-.61,10.5-.11,15.76-.28a10.45,10.45,0,0,1,9.57,4.48c2.28,3.4,1.41,7.71,1.59,11.57-.2,4.79,1,10.57-2.88,14.27-3.41,3.74-8.84,2.9-13.37,3-3.89-.17-7.9.47-11.69-.61a9.74,9.74,0,0,1-6.6-8.58c-.15-5-.15-10.09,0-15.12C667.82,526.72,671.29,523.19,675.3,522.25Z" transform="translate(0 -0.11)"/><path class="cls-4" d="M729.3,522.26c3.85-.6,7.78-.15,11.66-.28,3.32.1,6.9-.5,10,1.11a9.53,9.53,0,0,1,5.45,8.86c0,4.71.11,9.43,0,14.14-.18,5.2-5.19,9.34-10.28,9.13-5,0-10.09.13-15.12-.06a9.7,9.7,0,0,1-9-9.09c-.18-5-.18-10.11,0-15.15A9.7,9.7,0,0,1,729.3,522.26Z" transform="translate(0 -0.11)"/><path class="cls-4" d="M783.32,522.32c5.52-.74,11.15-.18,16.72-.33,4.7-.27,9.66,3.14,10.26,8,.3,4,0,8,.14,12-.1,2.75.36,5.78-1.21,8.24a9.82,9.82,0,0,1-8.19,4.94c-5,.13-10,.08-15.06,0s-10-4-9.79-9.11-.56-10.13-.19-15.18A9.71,9.71,0,0,1,783.32,522.32Z" transform="translate(0 -0.11)"/><path class="cls-4" d="M837.31,522.35c5.54-.8,11.2-.19,16.8-.37,5.11-.31,10.47,3.77,10.53,9.1q.2,7.45,0,14.92c-.08,5-4.68,9.1-9.55,9.17-5,.15-10.08.1-15.11,0s-9.72-4.11-9.83-9.17-.18-10.07,0-15.09C830.28,526.88,833.52,523.46,837.31,522.35Z" transform="translate(0 -0.11)"/><path class="cls-4" d="M891.36,522.38c5.49-.86,11.11-.2,16.66-.4,4.57-.32,9.49,2.7,10.47,7.33a162.26,162.26,0,0,1,0,18.32,9.79,9.79,0,0,1-9.47,7.56c-5,.1-10.07.1-15.09,0-4.88.06-9.54-4.16-9.51-9.12s-.1-10.07,0-15.09C884.35,526.92,887.62,523.48,891.36,522.38Z" transform="translate(0 -0.11)"/><path class="cls-4" d="M945.38,522.45c5.47-1,11.11-.24,16.65-.48,5.25-.48,10.73,3.55,10.92,9,.13,5,.12,10,0,15.07a9.76,9.76,0,0,1-8.87,9.09c-5,.26-10.08.09-15.11.09a10.44,10.44,0,0,1-8.88-4.33c-2.51-3.42-1.47-7.91-1.7-11.85.16-3.65-.49-7.46.67-11A10.35,10.35,0,0,1,945.38,522.45Z" transform="translate(0 -0.11)"/><path class="cls-4" d="M999.38,522.47c4.79-1,9.77-.23,14.64-.51,3.81-.24,8.08.29,10.69,3.4,3.22,3.38,2.35,8.42,2.5,12.67-.2,4.79,1,10.6-3,14.25-3.42,3.66-8.77,2.94-13.28,3-3.62-.1-7.26.27-10.84-.31a9.53,9.53,0,0,1-7.39-8.84c-.11-5.07-.12-10.14,0-15.2C992.74,527,995.79,523.66,999.38,522.47Z" transform="translate(0 -0.11)"/><path class="cls-4" d="M1054.24,522.29c5.56-.67,11.21-.16,16.81-.3,5-.26,10,3.76,10.07,8.9.08,5.38.22,10.78-.09,16.16a9.56,9.56,0,0,1-9,8.12c-5,.17-10.08.08-15.11.05-5.11.17-10-4-10.19-9.19-.18-4.68-.08-9.37-.06-14.06A9.78,9.78,0,0,1,1054.24,522.29Z" transform="translate(0 -0.11)"/><path class="cls-4" d="M1108.26,522.3c5.56-.69,11.21-.17,16.81-.31,5-.25,10.15,3.74,10.33,8.94.13,5,.12,10.1,0,15.15-.14,4.85-4.56,8.9-9.31,9.08-5,.18-10.08.08-15.11.06-5.06.18-9.87-4-10-9.16s-.25-10.09,0-15.12A9.73,9.73,0,0,1,1108.26,522.3Z" transform="translate(0 -0.11)"/><path class="cls-4" d="M1162.39,522.32c5.48-.74,11.07-.17,16.61-.34a10.11,10.11,0,0,1,10.25,7c.53,4.31.1,8.66.26,13-.11,2.76.39,5.82-1.19,8.29a9.94,9.94,0,0,1-8.3,4.93c-5,.11-10.07.09-15.1,0-4.58,0-9.32-3.59-9.62-8.31q-.27-8.37,0-16.75C1155.46,526.29,1158.86,523.32,1162.39,522.32Z" transform="translate(0 -0.11)"/><path class="cls-4" d="M1216.35,522.37c5.5-.84,11.13-.19,16.69-.39,4.83-.35,10,3.15,10.59,8.12.36,3.95.09,7.92.19,11.88.15,3.74-.07,8-3.22,10.59-3.35,3.32-8.37,2.64-12.65,2.68-3.65-.1-7.32.25-10.93-.28-4.16-.84-7.72-4.64-7.74-9q-.22-7.5,0-15C1209.29,526.92,1212.58,523.49,1216.35,522.37Z" transform="translate(0 -0.11)"/><path class="cls-4" d="M1270.37,522.4c5.48-.91,11.12-.21,16.67-.42,5.13-.4,10.8,3.56,10.72,9q.12,7.51,0,15c.11,5.07-4.8,9.15-9.67,9.15q-7.59.15-15.17,0c-5,0-9.64-4.47-9.42-9.54,0-4.84-.06-9.67,0-14.5C1263.36,527.05,1266.61,523.56,1270.37,522.4Z" transform="translate(0 -0.11)"/><path class="cls-4" d="M296.31,574.42c5.55-.49,11.15-.14,16.72-.21a9.74,9.74,0,0,1,10,8.76c.26,5,.19,10.07.05,15.1a9.51,9.51,0,0,1-9,9.13c-5.4.13-10.81.1-16.21,0-4.83,0-9.4-4.25-9.32-9.18-.1-4.7-.06-9.39,0-14.09C288.37,579.45,292,575.3,296.31,574.42Z" transform="translate(0 -0.11)"/><path class="cls-4" d="M350.32,574.42c5.56-.49,11.16-.14,16.74-.2,5-.29,9.86,3.72,10.18,8.76s.12,10,0,15.07A9.51,9.51,0,0,1,368,607.2c-5.35.12-10.72.1-16.07,0a9.27,9.27,0,0,1-9.09-9.16c-.07-5-.14-10.11,0-15.15A9.47,9.47,0,0,1,350.32,574.42Z" transform="translate(0 -0.11)"/><path class="cls-4" d="M404.33,574.48c5.56-.61,11.18-.16,16.77-.27a9.78,9.78,0,0,1,8.56,4.14c2.32,3,1.55,7.09,1.67,10.65-.1,3.67.23,7.36-.22,11a9.45,9.45,0,0,1-9.09,7.2c-5.37.07-10.74.12-16.11,0A9.4,9.4,0,0,1,397,599a148.94,148.94,0,0,1-.14-15.09A9.75,9.75,0,0,1,404.33,574.48Z" transform="translate(0 -0.11)"/><path class="cls-4" d="M621.27,574.41c5.58-.46,11.21-.14,16.82-.19a9.91,9.91,0,0,1,9.11,5.67c1.28,3.2.78,6.74.88,10.12-.09,3.54.41,7.18-.5,10.66a9.68,9.68,0,0,1-9.47,6.57c-5.06,0-10.11.07-15.15,0-4.91.11-9.54-4.21-9.36-9.2,0-5-.11-10.07,0-15.1A9.41,9.41,0,0,1,621.27,574.41Z" transform="translate(0 -0.11)"/><path class="cls-4" d="M675.38,574.43c5.52-.51,11.09-.14,16.64-.22a9.78,9.78,0,0,1,9.2,5.46c1.58,3.53.81,7.54,1,11.29-.13,4.54.89,10-2.76,13.47-3.76,4-9.6,2.62-14.45,2.83-4.88-.21-10.69,1.1-14.51-2.77-3.58-3.13-2.85-8.24-2.89-12.48.12-3.63-.37-7.32.4-10.89A10.08,10.08,0,0,1,675.38,574.43Z" transform="translate(0 -0.11)"/><path class="cls-4" d="M729.28,574.45c4.2-.55,8.46-.12,12.69-.26,2.7.06,5.53-.27,8.13.67a9.81,9.81,0,0,1,6.28,9.09c0,4.7.08,9.41,0,14.12,0,4.91-4.47,9.1-9.29,9.14q-8.05.15-16.09,0a9.41,9.41,0,0,1-9.11-9.11c-.15-4.72-.11-9.46,0-14.18A9.76,9.76,0,0,1,729.28,574.45Z" transform="translate(0 -0.11)"/><path class="cls-4" d="M783.35,574.49c5.85-.61,11.77-.21,17.65-.25a9.45,9.45,0,0,1,9.36,8.71c.14,5,.06,10,0,15,.19,5-4.44,9.33-9.35,9.22-5.39.06-10.78.13-16.16,0a9.33,9.33,0,0,1-8.78-8.19,104.35,104.35,0,0,1-.05-16A9.59,9.59,0,0,1,783.35,574.49Z" transform="translate(0 -0.11)"/><path class="cls-4" d="M1000.3,574.42c5.58-.48,11.2-.15,16.79-.2a9.73,9.73,0,0,1,10,8.75c.27,5,.2,10,.06,15a9.4,9.4,0,0,1-4.45,7.73c-2.83,1.9-6.39,1.46-9.61,1.53-4-.1-8.06.15-12.07-.14a9.22,9.22,0,0,1-8.27-9.07c-.09-4.72-.05-9.44,0-14.15A9.49,9.49,0,0,1,1000.3,574.42Z" transform="translate(0 -0.11)"/><path class="cls-4" d="M1054.33,574.45c5.54-.55,11.15-.14,16.73-.24,5-.38,9.86,3.71,10,8.75s.09,10.09,0,15.14a9.29,9.29,0,0,1-9.11,9.12c-5.37.08-10.75.11-16.12,0a9.51,9.51,0,0,1-9.19-9.14c-.14-4.73-.09-9.47,0-14.2A9.78,9.78,0,0,1,1054.33,574.45Z" transform="translate(0 -0.11)"/><path class="cls-4" d="M1108.33,574.47c5.54-.59,11.15-.15,16.73-.26a10,10,0,0,1,10.22,7.77c.42,4,.08,8,.21,12-.09,2.79.33,5.84-1.19,8.35a9.87,9.87,0,0,1-8.21,4.89c-5.38.08-10.76.11-16.14,0a9.49,9.49,0,0,1-9-9.09c-.2-4.73-.15-9.46,0-14.18A9.82,9.82,0,0,1,1108.33,574.47Z" transform="translate(0 -0.11)"/><path class="cls-4" d="M1162.32,574.51c5.52-.69,11.12-.16,16.68-.31a10.06,10.06,0,0,1,8.78,4c2.25,2.74,1.63,6.48,1.72,9.77-.12,4,.23,8-.21,12a9.54,9.54,0,0,1-9.27,7.2c-5,.08-10,0-15,0-4.35.16-9-2.92-9.63-7.36a166.9,166.9,0,0,1,.06-18.58A9.62,9.62,0,0,1,1162.32,574.51Z" transform="translate(0 -0.11)"/><path class="cls-4" d="M1216.38,574.54c5.84-.72,11.77-.23,17.65-.3a9.66,9.66,0,0,1,9.67,8.77c.2,5,.13,10,0,15,.08,5.09-4.72,9.34-9.69,9.22-5,.07-10.06.06-15.08,0-4.67.13-9.36-3.61-9.65-8.38-.26-5-.13-10-.09-14.93A9.64,9.64,0,0,1,1216.38,574.54Z" transform="translate(0 -0.11)"/><path class="cls-4" d="M1271.3,574.38c5.59-.39,11.21-.15,16.82-.14,4.78-.11,9.54,3.84,9.62,8.76.1,5.32.15,10.66,0,16-.23,4.78-5,8.34-9.61,8.24q-7.59.1-15.17,0c-5,.16-9.64-4.19-9.43-9.21,0-5-.11-10.08,0-15.12C1263.62,578.71,1267.23,575,1271.3,574.38Z" transform="translate(0 -0.11)"/><path class="cls-4" d="M1325.29,574.43c5.57-.49,11.19-.17,16.79-.2,5.24-.27,10.19,4.38,9.93,9.68,0,4.71,0,9.42,0,14.13.1,4.77-4.2,9-8.9,9.14-5.39.17-10.78.11-16.16,0-4.84,0-9.53-4.2-9.38-9.17-.12-4.7-.08-9.4,0-14.1C1317.28,579.41,1320.91,575.26,1325.29,574.43Z" transform="translate(0 -0.11)"/><path class="cls-4" d="M242.36,626.44c5.2-.6,10.48-.18,15.71-.26,5-.27,10.59,3.44,10.67,8.8.14,5,.06,10.06,0,15.09.33,5.23-4.68,9.57-9.71,9.52s-10,.09-14.95,0a10.09,10.09,0,0,1-9.19-6.65c-.85-3.91-.25-8-.43-11.93,0-2.66-.2-5.35.36-8A10.24,10.24,0,0,1,242.36,626.44Z" transform="translate(0 -0.11)"/><path class="cls-4" d="M296.36,626.49c5.18-.69,10.44-.21,15.65-.32,4.36-.25,8.88,2.21,10.46,6.39,1.24,4,.56,8.29.74,12.42s.23,9-3.28,12c-3.73,3.61-9.25,2.53-13.94,2.68-4.93-.15-10.83,1-14.58-3.06-3.86-3.45-2.73-9-2.88-13.6.09-3.3-.35-6.66.44-9.89A10.6,10.6,0,0,1,296.36,626.49Z" transform="translate(0 -0.11)"/><path class="cls-4" d="M350.41,626.49c5.52-.68,11.12-.25,16.67-.27,4.86,0,9.71,3.73,10.11,8.72.3,4.68.1,9.39.13,14.09a10,10,0,0,1-4.43,8.84c-3.8,2.58-8.62,1.56-12.91,1.77-4.9-.15-10.81,1-14.49-3.11-3.45-3.23-2.58-8.28-2.68-12.52.11-3.63-.32-7.32.41-10.9A10,10,0,0,1,350.41,626.49Z" transform="translate(0 -0.11)"/><path class="cls-4" d="M567.34,626.46c4.88-.63,9.83-.18,14.74-.3,3.6-.18,7.48.94,9.73,3.94,3.06,3.59,1.91,8.6,2.14,12.91-.11,4.69.89,10.38-3.13,13.83-3.63,3.69-9.16,2.66-13.81,2.8-4.94-.2-10.86,1.05-14.7-2.91-4-3.43-2.88-9.09-3-13.72.11-3.39-.38-6.87.54-10.17A10.18,10.18,0,0,1,567.34,626.46Z" transform="translate(0 -0.11)"/><path class="cls-4" d="M621.38,626.44c5.2-.6,10.48-.17,15.71-.27a10.68,10.68,0,0,1,10,5.73c1.32,3.19,1,6.75,1.07,10.14-.07,3.55.15,7.16-.63,10.66a10,10,0,0,1-9.5,6.89c-5,.08-10.08.11-15.1,0s-9.48-4.52-9.36-9.51c-.06-4.69-.05-9.39,0-14.08C613.38,631.44,617,627.34,621.38,626.44Z" transform="translate(0 -0.11)"/><path class="cls-4" d="M675.4,626.51c5.5-.72,11.1-.26,16.64-.31,5.23-.11,10.23,4.39,10.13,9.73.07,4.69.1,9.39,0,14.09a9.81,9.81,0,0,1-9.13,9.52c-5,.2-10.06.1-15.08.06-5.22.19-10.29-4.19-10.27-9.52-.14-4.72-.11-9.44,0-14.16C667.54,631.44,671.16,627.52,675.4,626.51Z" transform="translate(0 -0.11)"/><path class="cls-4" d="M729.4,626.51c5.51-.72,11.12-.26,16.67-.3,5.26-.1,10.44,4.33,10.3,9.76.06,4.7.09,9.41,0,14.12a9.81,9.81,0,0,1-5.72,8.54c-3.65,1.62-7.77.82-11.63,1-4.7-.19-10.26,1-14-2.67-3.56-2.9-3.3-7.83-3.23-12,.1-3.65-.24-7.32.25-11A10.07,10.07,0,0,1,729.4,626.51Z" transform="translate(0 -0.11)"/><path class="cls-4" d="M784.3,626.38a166.26,166.26,0,0,1,16.71-.12c5,.11,9.63,4.61,9.4,9.71,0,4.69,0,9.4,0,14.1.12,5-4.45,9.46-9.41,9.5s-10.07.1-15.1,0c-4.69,0-9.5-3.7-9.68-8.57-.16-5.35-.14-10.7,0-16C776.22,630.58,780.18,627.11,784.3,626.38Z" transform="translate(0 -0.11)"/><path class="cls-4" d="M838.29,626.41c5.23-.52,10.52-.2,15.79-.21,4.56-.14,9.19,2.87,10.31,7.4.39,6.47.84,13.18-.3,19.58a10.19,10.19,0,0,1-9.23,6.4c-5,.11-10,.09-14.92,0s-9.83-4.36-9.8-9.51c-.17-4.71-.14-9.43,0-14.14C830,631.3,833.82,627.2,838.29,626.41Z" transform="translate(0 -0.11)"/><path class="cls-4" d="M1054.42,626.53c5.51-.75,11.13-.27,16.69-.33,4.8-.08,9.67,3.71,10,8.66s.13,10.16.07,15.24c.13,4.93-4.27,9.26-9.11,9.45-5,.17-10.07.1-15.1.05-4.84.14-9.6-3.63-10.09-8.53-.3-5.36-.26-10.75,0-16.11C1047.11,630.85,1050.53,627.48,1054.42,626.53Z" transform="translate(0 -0.11)"/><path class="cls-4" d="M1108.34,626.56c5.53-.81,11.17-.29,16.75-.35,5.26-.13,10.5,4.33,10.35,9.77.06,4.7.07,9.4,0,14.1,0,5-4.55,9.3-9.43,9.48-3.67.19-7.34,0-11,.09-3.32,0-7,.28-9.79-1.8a10.14,10.14,0,0,1-4.37-8.82c0-4.7-.22-9.42.14-14.11A9.89,9.89,0,0,1,1108.34,626.56Z" transform="translate(0 -0.11)"/><path class="cls-4" d="M1163.29,626.39c5.25-.5,10.55-.17,15.82-.19a10.37,10.37,0,0,1,8.58,4.13c2.52,3,1.65,7.12,1.81,10.71-.1,3.68.21,7.37-.21,11a10,10,0,0,1-9.32,7.5c-5,.11-10,.09-15,0-4.41,0-8.92-3.25-9.59-7.72a165.1,165.1,0,0,1,.08-18.48C1156.29,629.74,1159.72,627.11,1163.29,626.39Z" transform="translate(0 -0.11)"/><path class="cls-4" d="M1217.36,626.41a155,155,0,0,1,16.7-.15c4.75.09,9.35,4,9.63,8.82s.14,10,0,14.94a9.71,9.71,0,0,1-5.35,8.45c-3.84,1.86-8.25.95-12.35,1.17-4.68-.11-10.22.86-13.84-2.87-5-4.91-2.34-12.58-3-18.77C1208.42,632.71,1212,627.29,1217.36,626.41Z" transform="translate(0 -0.11)"/><path class="cls-4" d="M1271.33,626.43c5.22-.56,10.5-.19,15.75-.24,5-.23,10.5,3.49,10.65,8.82.07,5.62.25,11.28-.12,16.89-.77,4.48-5.29,7.69-9.71,7.69-4.93.08-9.85.09-14.77,0a9.75,9.75,0,0,1-8.21-4.59c-1.91-2.6-1.36-6-1.46-9,.15-4.31-.34-8.66.33-12.92A10.13,10.13,0,0,1,1271.33,626.43Z" transform="translate(0 -0.11)"/><path class="cls-4" d="M1325.37,626.49c5.19-.66,10.45-.23,15.68-.31a10.73,10.73,0,0,1,9.33,4.48c2.09,2.64,1.57,6.18,1.65,9.32-.13,4,.22,7.95-.2,11.9a10,10,0,0,1-9.73,7.7c-5,.09-10.07.13-15.1,0s-9.58-4.47-9.45-9.51c-.11-4.69-.1-9.38,0-14.07C1317.35,631.44,1321,627.37,1325.37,626.49Z" transform="translate(0 -0.11)"/><path class="cls-4" d="M186.25,679.31c3.76-1.33,7.86-.55,11.77-.74,4.82.11,10.66-1,14.23,3.14,2.87,2.65,2.6,6.77,2.57,10.33s.12,7.3-.12,11c-.23,4.82-4.85,8.7-9.58,8.64q-7.6.12-15.23,0c-4.76,0-9.33-3.88-9.57-8.71-.27-4.32-.08-8.66-.13-13C179.71,685.51,182,680.92,186.25,679.31Z" transform="translate(0 -0.11)"/><path class="cls-4" d="M240.33,679.32c3.39-1.29,7.13-.6,10.69-.75,3.6.09,7.26-.32,10.83.35,3.58,1,6.85,4.18,6.89,8.08.12,5.32.11,10.66,0,16,0,5-4.95,8.81-9.71,8.66-5,0-10.08.07-15.11,0s-9.75-4.49-9.41-9.6c0-5-.11-10,.06-15.07C234.7,683.54,237.31,680.66,240.33,679.32Z" transform="translate(0 -0.11)"/><path class="cls-4" d="M294.37,679.38c3.7-1.43,7.78-.61,11.65-.81,4.65.22,10.16-1.07,13.9,2.48,4.1,3.4,3.19,9.18,3.29,13.9-.13,4.75.89,10.56-3.15,14.07-3.72,3.71-9.3,2.45-14,2.65-4.77-.26-10.42,1.13-14.26-2.54-5.23-4.54-2.67-12.14-3.3-18.15C287.87,686.33,289.81,681.24,294.37,679.38Z" transform="translate(0 -0.11)"/><path class="cls-4" d="M511.3,679.28c3.75-1.27,7.8-.53,11.69-.71,4.84.11,10.74-1,14.29,3.2,3,2.94,2.25,7.39,2.34,11.18-.12,3.88.26,7.8-.27,11.67a9.62,9.62,0,0,1-9.27,7q-7.59.12-15.18,0c-4.71.07-9.44-3.79-9.54-8.64q-.19-8,0-15.91C505.44,683.54,508.11,680.52,511.3,679.28Z" transform="translate(0 -0.11)"/><path class="cls-4" d="M565.38,679.3c3.38-1.23,7.08-.59,10.6-.73,3.63.1,7.33-.33,10.92.39a9.65,9.65,0,0,1,7,9c.12,4.71.1,9.42,0,14.13a9.75,9.75,0,0,1-9.79,9.57c-5.08.05-10.15.09-15.21,0-4.73,0-9.29-3.92-9.5-8.73-.22-5-.13-10-.06-14.93A9.44,9.44,0,0,1,565.38,679.3Z" transform="translate(0 -0.11)"/><path class="cls-4" d="M619.32,679.36c3.71-1.42,7.79-.59,11.67-.79,4.24.22,9-.88,12.76,1.64A9.35,9.35,0,0,1,648,688a117.63,117.63,0,0,1-.08,15c-.26,4.93-5,8.87-9.86,8.67-5.07,0-10.14.08-15.21,0a9.47,9.47,0,0,1-9.26-9.56q-.08-7,0-14.09A9.23,9.23,0,0,1,619.32,679.36Z" transform="translate(0 -0.11)"/><path class="cls-4" d="M673.42,679.41c3.32-1.38,7-.69,10.53-.84,3.69.09,7.41-.29,11.07.3a9.56,9.56,0,0,1,7.13,9c.12,4.74.1,9.48,0,14.22a9.61,9.61,0,0,1-9.13,9.5c-5.33.11-10.67.1-16,0-5-.06-9.53-4.54-9.4-9.57-.08-4.69-.09-9.39,0-14.08A9.44,9.44,0,0,1,673.42,679.41Z" transform="translate(0 -0.11)"/><path class="cls-4" d="M727.44,679.43c4-1.56,8.41-.62,12.6-.86,3.94.19,8.36-.77,11.86,1.57a9.2,9.2,0,0,1,4.46,7.83c.08,4.7.07,9.41,0,14.12.11,5-4.42,9.44-9.35,9.52-5.35.1-10.71.11-16.06,0a9.62,9.62,0,0,1-8.22-5.48c-1.85-5.16-.59-10.82-1-16.19C721.36,685.68,723.37,681.16,727.44,679.43Z" transform="translate(0 -0.11)"/><path class="cls-4" d="M782.28,679.18c3.44-1.08,7.13-.48,10.69-.61,3.33,0,6.69-.22,10,.25a9.36,9.36,0,0,1,7.43,9.13c0,4.68,0,9.37,0,14.07.27,5.07-4.32,9.64-9.35,9.6s-10.11.06-15.16,0a9.87,9.87,0,0,1-8.72-4.94c-2.22-5.24-1.1-11.17-1.31-16.71C775.53,685.48,777.76,680.67,782.28,679.18Z" transform="translate(0 -0.11)"/><path class="cls-4" d="M836.29,679.22c3.77-1.19,7.81-.47,11.71-.65,4.62.13,10.1-.92,13.71,2.73,2.86,2.36,3.17,6.25,3,9.69-.09,4,.11,7.92-.11,11.88-.22,4.82-4.81,8.76-9.54,8.75-5.06.1-10.13.07-15.2,0a9.71,9.71,0,0,1-9.76-9.51c-.13-4.73-.13-9.47,0-14.19A9.63,9.63,0,0,1,836.29,679.22Z" transform="translate(0 -0.11)"/><path class="cls-4" d="M890.35,679.27c2.73-1,5.72-.64,8.59-.71,3.67.07,7.35-.14,11,.1,4.36.28,8.59,4,8.68,8.49.12,5.29.12,10.6,0,15.9-.13,4.48-4.27,8.19-8.61,8.51-4,.27-8,0-12,.13-2.87-.08-6,.29-8.56-1.18a8.94,8.94,0,0,1-5-7.47c-.18-5-.09-10.06-.06-15.09A9.09,9.09,0,0,1,890.35,679.27Z" transform="translate(0 -0.11)"/><path class="cls-4" d="M1106.37,679.51c4-1.68,8.47-.69,12.68-.94,4.56.11,10-.9,13.51,2.82,3.4,2.85,3,7.59,2.92,11.58-.11,3.68.21,7.38-.22,11.06a9.87,9.87,0,0,1-9.24,7.59c-5.29.09-10.58.1-15.86,0A9.57,9.57,0,0,1,1101,703c-.33-5-.23-10.08-.09-15.1A9.57,9.57,0,0,1,1106.37,679.51Z" transform="translate(0 -0.11)"/><path class="cls-4" d="M1161.27,679.21c3.43-1.14,7.14-.5,10.7-.64a84,84,0,0,1,10,.23c4.14.87,7.7,4.76,7.48,9.12,0,4.72,0,9.43,0,14.15.31,5.08-4.4,9.58-9.38,9.56s-10.12,0-15.17,0c-4.75.15-9.66-3.7-9.68-8.64-.11-5.35-.13-10.72,0-16.07C1155.3,683.39,1158.09,680.44,1161.27,679.21Z" transform="translate(0 -0.11)"/><path class="cls-4" d="M1215.33,679.25c3.75-1.24,7.8-.5,11.7-.68,4.19.2,8.93-.86,12.58,1.78a9.14,9.14,0,0,1,4.14,7.6c.07,5,.15,10,0,15-.29,4.82-4.86,8.76-9.62,8.7-5,.08-10.11.07-15.15,0a9.77,9.77,0,0,1-9.36-7,116.52,116.52,0,0,1-.17-18.4A9.55,9.55,0,0,1,1215.33,679.25Z" transform="translate(0 -0.11)"/><path class="cls-4" d="M1269.25,679.32c3.1-1.2,6.51-.65,9.77-.76,3.65.08,7.34-.22,11,.23,3.88.73,7.54,4,7.7,8.17.18,5,.07,10.09.06,15.13.32,5.24-4.63,9.69-9.72,9.54-5,.07-10.08.08-15.11,0-4.67.08-9.27-3.8-9.41-8.57-.16-5-.07-10,0-15.07A9.2,9.2,0,0,1,1269.25,679.32Z" transform="translate(0 -0.11)"/><path class="cls-4" d="M1323.36,679.36c2.71-1.16,5.75-.72,8.64-.8,3.67.07,7.35-.13,11,.09,4.75.17,9.11,4.42,9,9.26.06,4.72,0,9.43,0,14.15a9.57,9.57,0,0,1-9.09,9.54c-5.3.14-10.6.1-15.88,0-4.67,0-9.17-3.85-9.43-8.59-.22-5-.12-10-.07-15.07C1317.38,684.2,1320,680.83,1323.36,679.36Z" transform="translate(0 -0.11)"/><path class="cls-4" d="M186.3,731.43c3.08-1.25,6.49-.77,9.73-.86,3.65.09,7.34-.26,11,.3,4.18.9,7.79,4.75,7.74,9.14.1,5,.15,10,0,15s-4.89,8.74-9.61,8.91-9.4.07-14.1,0a10.82,10.82,0,0,1-9.71-5.37c-1.26-2.31-1-5-1.11-7.57.08-4-.16-8,.18-12A9.65,9.65,0,0,1,186.3,731.43Z" transform="translate(0 -0.11)"/><path class="cls-4" d="M240.38,731.42c3.7-1.43,7.76-.67,11.62-.84,4,.19,8.41-.74,12,1.42,2.39,1.54,4.62,4,4.68,7,.17,5.34.1,10.7,0,16,.07,5-4.88,8.82-9.6,9-5.09.08-10.17.12-15.25,0s-9.85-4.68-9.39-9.93c0-5-.14-10,.08-15.06C234.86,735.6,237.42,732.78,240.38,731.42Z" transform="translate(0 -0.11)"/><path class="cls-4" d="M457.3,731.3c5.42-1.46,11.16-.43,16.71-.72,5.22-.52,11,3,11.47,8.53.23,5.29.17,10.6,0,15.9-.16,4.86-4.75,8.68-9.44,8.92-5,.18-10.09.11-15.13,0-4.84,0-9.57-3.92-9.87-8.87s-.15-10.11,0-15.15A9.78,9.78,0,0,1,457.3,731.3Z" transform="translate(0 -0.11)"/><path class="cls-4" d="M511.36,731.36c3.08-1.18,6.47-.7,9.7-.79,3.63.09,7.31-.25,10.93.3,4.14.84,7.69,4.76,7.58,9.09.07,5,.09,10,0,15.07s-4.78,8.74-9.46,8.92q-7.59.18-15.17,0c-5.12-.11-10.06-4.56-9.62-9.88,0-5.25-.23-10.52.16-15.75A9.71,9.71,0,0,1,511.36,731.36Z" transform="translate(0 -0.11)"/><path class="cls-4" d="M565.31,731.47c5.71-1.75,11.84-.56,17.73-.89,5.34-.43,10.78,3.87,10.83,9.38.13,5,.17,10.06,0,15.09s-5,8.81-9.74,8.91c-5,.09-10.1.13-15.13,0-4.76-.22-9.48-4.06-9.59-9s-.14-9.95,0-14.92A9.6,9.6,0,0,1,565.31,731.47Z" transform="translate(0 -0.11)"/><path class="cls-4" d="M619.37,731.46c5.68-1.75,11.79-.53,17.65-.88,5-.43,10.34,3.22,10.85,8.42a107.21,107.21,0,0,1,.09,16c-.21,5-5,8.91-9.88,8.94s-9.46.06-14.18,0a10.39,10.39,0,0,1-9-4.91c-1.72-2.71-1.19-6.05-1.28-9.07.12-4-.26-8.06.24-12A10,10,0,0,1,619.37,731.46Z" transform="translate(0 -0.11)"/><path class="cls-4" d="M674.29,731.19c6.45-1.19,13.18-.57,19.72-.41a9.9,9.9,0,0,1,8.18,10.11c-.05,5,.26,10.07-.2,15.07-.87,5.49-6.73,8.74-12,8.08-6.36-.66-13.9,1.82-19.21-2.79-5.15-4.62-2.6-12.19-3.23-18.22C666.92,738.12,669.38,732.77,674.29,731.19Z" transform="translate(0 -0.11)"/><path class="cls-4" d="M728.33,731.19c3.76-1.12,7.76-.45,11.63-.61,4.59,0,10-.74,13.53,3,3.76,3.4,2.82,8.86,2.91,13.39-.21,4.61,1.06,10.14-2.65,13.73C750,764.92,744,764,738.94,764c-4.76-.11-10.35.91-14.08-2.84-4.92-4.73-2.49-12.17-3.09-18.19C721.16,738.14,723.48,732.82,728.33,731.19Z" transform="translate(0 -0.11)"/><path class="cls-4" d="M782.26,731.31c6.43-1.44,13.23-.6,19.79-.55,4.46.52,8.4,4.61,8.35,9.18,0,5,.09,10.12,0,15.18-.12,4.79-4.65,8.59-9.27,8.82-4.38.19-8.76,0-13.14.09-5.15.56-11.05-2.64-11.76-8.1a98.62,98.62,0,0,1-.17-16A9.7,9.7,0,0,1,782.26,731.31Z" transform="translate(0 -0.11)"/><path class="cls-4" d="M836.31,731.34c3.75-1.34,7.83-.58,11.74-.77,4.78,0,10.55-.73,14.06,3.32,3.53,3.44,2.42,8.71,2.6,13.12-.23,4.67,1.1,10.35-2.82,13.9-3.07,3.21-7.77,3.27-11.9,3.12-3.68-.09-7.37.16-11-.15-4.45-.51-8.58-4.27-8.78-8.87-.22-5-.18-10,0-15A9.78,9.78,0,0,1,836.31,731.34Z" transform="translate(0 -0.11)"/><path class="cls-4" d="M890.33,731.38c6.38-1.56,13.15-.64,19.68-.65,4.57.38,8.78,4.51,8.66,9.2.06,5,.1,10.08,0,15.12s-4.85,8.76-9.56,8.9c-4.37.17-8.74,0-13.1.08-3.94.27-8.1-1.34-10.27-4.73-2.63-5.3-.79-11.59-1.35-17.29A10.06,10.06,0,0,1,890.33,731.38Z" transform="translate(0 -0.11)"/><path class="cls-4" d="M944.42,731.46c4-1.51,8.4-.68,12.6-.89,4.53,0,9.94-.62,13.28,3.17,3.58,3.44,2.59,8.77,2.72,13.23-.22,4.54,1,9.91-2.46,13.56-3.06,3.69-8.16,3.66-12.51,3.5-3.67-.1-7.36.19-11-.19-4.38-.61-8.44-4.3-8.55-8.87-.19-5-.14-10,0-15A9.56,9.56,0,0,1,944.42,731.46Z" transform="translate(0 -0.11)"/><path class="cls-4" d="M1161.31,731.31c3.73-1.31,7.78-.55,11.66-.73,4.59.1,10.09-.87,13.62,2.86,4,3.39,2.74,8.95,2.9,13.54-.28,4.65,1.21,10.27-2.61,13.89-3.83,4.1-9.82,3-14.84,3.15-3.92-.19-8.17.69-11.74-1.3-2.84-1.48-5.16-4.37-5-7.68-.11-5-.08-10.1,0-15.15C1155,736,1158,732.76,1161.31,731.31Z" transform="translate(0 -0.11)"/><path class="cls-4" d="M1215.28,731.41c6.39-1.63,13.21-.66,19.76-.66,4.56.46,8.65,4.51,8.69,9.19.12,5,.16,10,0,15s-4.84,8.76-9.57,9-9.45.07-14.16.06c-4.56.18-9.38-2.78-10.45-7.36-.63-5.52-.28-11.11-.26-16.64C1209.2,736.21,1211.91,732.87,1215.28,731.41Z" transform="translate(0 -0.11)"/><path class="cls-4" d="M1269.32,731.41c3.72-1.41,7.81-.66,11.71-.83,4.81.06,10.6-.84,14.17,3.21,2.94,2.54,2.64,6.66,2.62,10.19-.15,4.23.25,8.49-.26,12.71-1,4.23-5.28,7.11-9.48,7.26-4.73.15-9.45.06-14.16,0-4.68.17-9.62-3.13-10.31-7.92-.33-5-.07-10.09-.15-15.13A9.73,9.73,0,0,1,1269.32,731.41Z" transform="translate(0 -0.11)"/><path class="cls-4" d="M1323.39,731.49c4-1.55,8.4-.71,12.59-.92,4.53,0,10-.67,13.32,3.1,3.7,3.42,2.56,8.79,2.72,13.28-.2,4.78,1.12,10.55-2.92,14.17-5.21,4.72-12.76,2.3-19.06,2.92-5.29.62-11.47-2.35-12.35-8-.4-5.37-.19-10.77-.14-16.15C1317.49,736.21,1320.15,733,1323.39,731.49Z" transform="translate(0 -0.11)"/><path class="cls-4" d="M187.33,783.29c4.52-.68,9.12-.13,13.67-.32,2.93.08,6.13-.41,8.78,1.16a9.06,9.06,0,0,1,5,7.89c.11,5,.14,10,0,15s-4.85,9-9.7,9c-5,.16-10.07.18-15.09,0-4.82,0-9.45-4-9.62-8.94s-.17-10.06,0-15.07C180.24,787.89,183.49,784.36,187.33,783.29Z" transform="translate(0 -0.11)"/><path class="cls-4" d="M403.39,783.45c4.13-1,8.45-.26,12.67-.47,4.2.07,9.17-.78,12.4,2.61,3.89,3.35,2.7,8.9,2.87,13.43-.25,4.63,1.1,10.15-2.5,13.84C425.1,817.12,419,816,414,816.13c-4.78-.14-10.48.86-14.15-3-4.76-4.78-2.45-12.19-3-18.2C396.27,790.18,398.52,784.92,403.39,783.45Z" transform="translate(0 -0.11)"/><path class="cls-4" d="M457.33,783.53c3.77-1.07,7.77-.36,11.65-.54,4.55.17,9.95-1,13.56,2.56,2.5,2,3.25,5.34,3.07,8.43-.05,4.33.1,8.67-.09,13-.1,4.89-4.65,8.87-9.42,9-5.36.22-10.75.26-16.1,0a9.75,9.75,0,0,1-8.92-8.88c-.19-5.08-.15-10.17,0-15.25A9.47,9.47,0,0,1,457.33,783.53Z" transform="translate(0 -0.11)"/><path class="cls-4" d="M512.31,783.29c4.19-.67,8.46-.15,12.68-.31,3,.1,6.27-.45,9.13.84,3.11,1.42,5.58,4.57,5.45,8.11.08,5,.08,10,0,15.06s-4.69,9-9.53,9q-7.54.26-15.1,0c-4.82,0-9.55-4-9.59-9s-.09-10.1,0-15.14C505.2,787.82,508.5,784.3,512.31,783.29Z" transform="translate(0 -0.11)"/><path class="cls-4" d="M566.3,783.33c5.88-.76,11.86-.18,17.79-.34,4.92-.24,9.68,3.92,9.78,8.91.09,5.31.26,10.65-.12,16A9.91,9.91,0,0,1,584,816c-5,.14-10.06.18-15.08,0-4.86-.08-9.49-4.13-9.57-9.11s-.14-9.95,0-14.91C559.34,787.92,562.54,784.44,566.3,783.33Z" transform="translate(0 -0.11)"/><path class="cls-4" d="M620.33,783.34c5.85-.78,11.81-.18,17.71-.35,4.65-.29,9.38,3.27,9.82,8a107.27,107.27,0,0,1,.31,12c-.1,3.05,0,6.48-2,9a10.24,10.24,0,0,1-8.06,4c-5,.12-10.1.17-15.14,0-4.73-.11-9.22-4.09-9.29-8.92-.13-5.05-.09-10.1,0-15.15C613.51,788,616.6,784.42,620.33,783.34Z" transform="translate(0 -0.11)"/><path class="cls-4" d="M674.33,783.41c5.83-.94,11.82-.2,17.72-.43a9.48,9.48,0,0,1,10.09,8.95c.12,5,.16,10.08,0,15.11a9.74,9.74,0,0,1-9.05,9c-5,.26-10.09.16-15.13.08-5,.13-10-3.83-10.24-9-.21-4.7-.08-9.41-.08-14.12A9.58,9.58,0,0,1,674.33,783.41Z" transform="translate(0 -0.11)"/><path class="cls-4" d="M728.34,783.42c5.82-1,11.8-.2,17.69-.44,5.11-.45,10.25,3.72,10.31,9,.11,5,.13,10.09,0,15.13-.25,4.76-4.59,8.69-9.27,8.91-5,.26-10.1.15-15.14.08-5,.16-9.8-4-10-9-.24-4.68-.1-9.38-.1-14.06A9.64,9.64,0,0,1,728.34,783.42Z" transform="translate(0 -0.11)"/><path class="cls-4" d="M782.37,783.49c3.45-1,7.11-.36,10.66-.5a91.19,91.19,0,0,1,9.92.19,9.19,9.19,0,0,1,7.44,8.71c.06,5.06.08,10.13,0,15.19-.07,4.85-4.6,8.84-9.33,8.93-5,.21-10.11.16-15.16,0a10.23,10.23,0,0,1-8.78-5.19c-2.14-5.68-1.07-12-1.16-17.94A9.61,9.61,0,0,1,782.37,783.49Z" transform="translate(0 -0.11)"/><path class="cls-4" d="M837.3,783.26c5.56-.63,11.2-.12,16.79-.29,5.17-.51,10.56,3.66,10.56,9s.32,11-.2,16.4a9.93,9.93,0,0,1-9.37,7.61c-5,.22-10.1.18-15.14,0-4.91,0-9.57-4-9.77-9s-.17-10.09,0-15.12A9.5,9.5,0,0,1,837.3,783.26Z" transform="translate(0 -0.11)"/><path class="cls-4" d="M891.26,783.3c5.87-.7,11.84-.17,17.75-.3,4.89-.24,9.83,3.91,9.66,9,.06,5,.09,10,0,15.06,0,4.61-4.17,8.51-8.64,8.91-5,.36-10,.17-15,.15a10.38,10.38,0,0,1-8.9-4.22c-2.05-2.5-1.64-5.89-1.7-8.89.09-4-.14-8,.13-12C884.77,787.3,887.83,784.29,891.26,783.3Z" transform="translate(0 -0.11)"/><path class="cls-4" d="M945.35,783.34c5.86-.78,11.83-.18,17.74-.35a9.54,9.54,0,0,1,9.86,8.85c.15,4.74.07,9.49,0,14.24a9.81,9.81,0,0,1-9,9.87c-5.35.3-10.73.25-16.08,0-4.81-.1-9.38-4.1-9.48-9s-.14-10,0-15C938.4,787.94,941.6,784.45,945.35,783.34Z" transform="translate(0 -0.11)"/><path class="cls-4" d="M999.34,783.35c5.84-.81,11.81-.18,17.71-.36,4.68-.31,9.4,3.26,9.94,8,.42,4.33.14,8.69.22,13,.06,3.27-.44,6.91-3.07,9.18-3.69,3.78-9.37,2.77-14.12,2.92-5-.17-11.16,1-14.87-3.3-4.27-4.91-1.83-12-2.5-17.83C991.92,790.14,994.32,784.71,999.34,783.35Z" transform="translate(0 -0.11)"/><path class="cls-4" d="M1216.28,783.28c5.54-.67,11.17-.12,16.75-.31,4.89-.51,10.13,3.06,10.62,8.12.31,5,.14,10,.11,15a9.73,9.73,0,0,1-6.35,9.26c-4,1.23-8.27.62-12.38.78-4.47,0-9.75.52-13.07-3.13-2.53-2.28-2.9-5.82-2.77-9,.06-4.3-.17-8.6.14-12.89C1209.64,787.34,1212.76,784.29,1216.28,783.28Z" transform="translate(0 -0.11)"/><path class="cls-4" d="M1270.3,783.3c5.86-.69,11.82-.17,17.74-.3,4.91-.22,9.93,3.89,9.73,9,0,5,.08,10,0,15,0,4.63-4.23,8.5-8.71,8.89-5,.37-10.07.18-15.09.15a10.25,10.25,0,0,1-8.83-4.26c-2-2.49-1.63-5.84-1.66-8.81.08-3.9-.12-7.81.07-11.7S1266.77,784.33,1270.3,783.3Z" transform="translate(0 -0.11)"/><path class="cls-4" d="M1324.31,783.37c5.85-.84,11.83-.2,17.74-.38,5-.33,9.89,3.8,9.93,8.87s.09,10.09,0,15.14a9.6,9.6,0,0,1-8.09,8.85c-6.7.24-13.67,1-20.23-.57a9.43,9.43,0,0,1-6.07-8.22c-.18-5-.13-10.08,0-15.11C1317.46,788,1320.63,784.5,1324.31,783.37Z" transform="translate(0 -0.11)"/><path class="cls-4" d="M187.32,835.42c4.16-.94,8.47-.42,12.69-.56s9-.22,12,3.15c3.85,3.61,2.52,9.28,2.76,14-.18,4.43.95,9.78-2.7,13.18-3.65,4-9.36,2.68-14.12,2.85-5.07-.26-11.17,1.28-15.09-2.89-3.61-3.39-2.53-8.72-2.71-13.14.16-3.67-.49-7.5.79-11A10,10,0,0,1,187.32,835.42Z" transform="translate(0 -0.11)"/><path class="cls-4" d="M404.34,835.3c3.5-.71,7.1-.36,10.65-.44,3.21,0,6.5-.21,9.65.63a9.4,9.4,0,0,1,6.63,8.43c.12,5.05.09,10.12,0,15.17a9.19,9.19,0,0,1-9.18,8.9c-5.4,0-10.8.07-16.19,0a9.36,9.36,0,0,1-9-8.93c-.22-5-.25-10.09,0-15.12A9.71,9.71,0,0,1,404.34,835.3Z" transform="translate(0 -0.11)"/><path class="cls-4" d="M458.32,835.34c5.51-.88,11.16-.39,16.73-.39,5.08-.21,10.33,3.69,10.47,9,.16,5,.12,10,0,15.06s-4.63,9.11-9.46,9c-5.06.07-10.11,0-15.17,0a9.51,9.51,0,0,1-9.87-8.93c-.15-4.74-.08-9.47,0-14.2A9.79,9.79,0,0,1,458.32,835.34Z" transform="translate(0 -0.11)"/><path class="cls-4" d="M512.36,835.39c3.48-.81,7.09-.45,10.63-.53,3.22,0,6.51-.2,9.68.56,3.75,1,6.92,4.58,6.9,8.57.09,5,.08,10,0,15.07.15,5-4.62,9.15-9.46,9-5.06,0-10.13,0-15.18,0-4.9.22-9.79-4-9.6-9-.07-5-.1-10,0-15C505.37,839.94,508.57,836.41,512.36,835.39Z" transform="translate(0 -0.11)"/><path class="cls-4" d="M566.34,835.45c4.14-1,8.44-.46,12.65-.59s9-.25,12.08,3.08c3.14,2.8,2.95,7.26,2.89,11.1-.08,3.63.16,7.28-.18,10.91a9.52,9.52,0,0,1-9.73,8.07c-5.06,0-10.12,0-15.18,0-4.85.12-9.52-4-9.51-9s-.14-10,0-14.91A9.56,9.56,0,0,1,566.34,835.45Z" transform="translate(0 -0.11)"/><path class="cls-4" d="M620.39,835.44c5.45-1.08,11.08-.41,16.61-.53,5-.34,10.21,3.06,10.85,8.19a111.28,111.28,0,0,1,.21,14.95,9.66,9.66,0,0,1-3.87,8.11c-3.77,2.89-8.78,1.58-13.16,1.85-4.86-.3-10.68,1.25-14.57-2.54-3.64-3.11-2.84-8.23-2.88-12.48.1-3.65-.3-7.34.29-11A9.75,9.75,0,0,1,620.39,835.44Z" transform="translate(0 -0.11)"/><path class="cls-4" d="M675.26,835.27c5.21-.78,10.53-.29,15.79-.37a10.71,10.71,0,0,1,9.11,3.93c2.4,2.84,2,6.76,2.06,10.22-.09,3.65.18,7.31-.17,11a9.34,9.34,0,0,1-9,8q-8.07.07-16.13,0a9.4,9.4,0,0,1-9.26-8.88c-.18-4.71-.08-9.42-.06-14.12A9.86,9.86,0,0,1,675.26,835.27Z" transform="translate(0 -0.11)"/><path class="cls-4" d="M728.37,835.53c3.77-1.09,7.76-.53,11.63-.66,3.2,0,6.49-.26,9.61.65a9.82,9.82,0,0,1,6.77,9.45c0,4.68.1,9.37,0,14a9.42,9.42,0,0,1-9.3,9c-4,.12-8,0-12,0-2.92,0-6.12.35-8.66-1.38a9.58,9.58,0,0,1-4.54-8.58c0-4.72-.14-9.43.08-14.13A9.76,9.76,0,0,1,728.37,835.53Z" transform="translate(0 -0.11)"/><path class="cls-4" d="M783.27,835.34c4.86-.88,9.85-.33,14.76-.47,3.74-.13,7.92.58,10.32,3.77,2.8,3.12,2,7.55,2.07,11.38-.1,3.66.25,7.34-.22,11a9.39,9.39,0,0,1-9.12,7c-5,.07-10.07,0-15.1,0-4.64.31-9.36-3.24-9.82-7.95A101.31,101.31,0,0,1,776,844,9.64,9.64,0,0,1,783.27,835.34Z" transform="translate(0 -0.11)"/><path class="cls-4" d="M837.33,835.36c4.51-.9,9.16-.35,13.73-.5,4-.1,8.66.25,11.36,3.68,3.32,3.68,2,9,2.29,13.46-.17,4.38.94,9.65-2.62,13-3.88,4.24-10,2.72-15.08,3-4.79-.18-10.49,1.12-14.18-2.81-4.61-4.89-2.16-12.2-2.79-18.21C829.38,842,832.25,836.61,837.33,835.36Z" transform="translate(0 -0.11)"/><path class="cls-4" d="M891.33,835.4c5.5-1,11.15-.41,16.72-.47,4.83-.24,10,3.13,10.53,8.17.26,5.3.12,10.62.09,15.93a8.8,8.8,0,0,1-4.87,7.84c-3.63,1.93-7.9.9-11.82,1.14-5.05-.29-11.19,1.32-15.07-2.9-4.43-4.9-1.82-12.11-2.54-18.05C883.58,842.11,886.27,836.69,891.33,835.4Z" transform="translate(0 -0.11)"/><path class="cls-4" d="M945.43,835.45c5.12-1.06,10.41-.43,15.61-.56,3.72-.14,7.82.86,10.05,4.11,2.71,3.42,1.77,8,1.93,12-.08,3.25.24,6.54-.29,9.78A9.63,9.63,0,0,1,963,868c-5,0-10.11,0-15.16,0-4.79.1-9.42-4-9.4-8.91s-.15-10,0-15.05A9.54,9.54,0,0,1,945.43,835.45Z" transform="translate(0 -0.11)"/><path class="cls-4" d="M999.31,835.49c4.13-1,8.46-.48,12.69-.63s9-.33,12.14,3c3.52,3,3,8,3.07,12.17-.15,3.88.4,7.88-.61,11.68a9.6,9.6,0,0,1-9.53,6.35c-5,0-10.08,0-15.11,0a9.22,9.22,0,0,1-9.25-8.9c-.07-5.08-.11-10.15,0-15.22A9.39,9.39,0,0,1,999.31,835.49Z" transform="translate(0 -0.11)"/><path class="cls-4" d="M1216.28,835.41c5.52-1,11.21-.42,16.8-.48,4.85-.22,9.89,3.2,10.53,8.2.39,5,.15,10,.17,15a9.36,9.36,0,0,1-3.73,7.95c-4,3.13-9.35,1.66-14,2-4.15-.28-8.8,1-12.47-1.51a9,9,0,0,1-4.31-7.48c-.13-5-.16-10,0-15C1209.34,840,1212.51,836.5,1216.28,835.41Z" transform="translate(0 -0.11)"/><path class="cls-4" d="M1270.33,835.41c5.5-1,11.16-.41,16.73-.48,4.61-.2,9.48,2.72,10.51,7.4.19,6.57.79,13.36-.35,19.86A9.76,9.76,0,0,1,1288,868q-7.53,0-15,0c-4.74.22-9.39-3.78-9.46-8.59-.12-5-.06-10,0-15.06C1263.35,840.26,1266.48,836.53,1270.33,835.41Z" transform="translate(0 -0.11)"/><path class="cls-4" d="M1324.35,835.49c4.45-1.06,9.09-.48,13.64-.63,4-.07,8.79,0,11.62,3.45,2.79,2.84,2.46,7,2.42,10.69s.15,7.38-.12,11.07a9.51,9.51,0,0,1-9.82,7.95c-5,0-10.11,0-15.15,0-4.81.11-9.46-4.07-9.39-9-.13-4.69-.08-9.38,0-14.06A9.57,9.57,0,0,1,1324.35,835.49Z" transform="translate(0 -0.11)"/><path class="cls-4" d="M187.4,887.5c5.46-1.06,11.11-.33,16.64-.5,5.08-.2,10.54,3.65,10.68,9,.16,5,.13,10,0,15,0,4.4-3.55,8.24-7.73,9.17-6.58.34-13.34.7-19.87-.24-3.77-1.24-6.86-4.8-6.86-8.86-.14-5-.18-10.09,0-15.13C180.45,891.92,183.72,888.65,187.4,887.5Z" transform="translate(0 -0.11)"/><path class="cls-4" d="M242.29,887.29c5.23-.65,10.53-.19,15.79-.3a11,11,0,0,1,9.36,4.61c1.78,2.41,1.27,5.58,1.38,8.4-.18,4.53.34,9.11-.33,13.61a10.08,10.08,0,0,1-9.38,6.78c-5.06.05-10.12.1-15.18,0-4.88-.05-9.51-4.36-9.39-9.34-.06-5-.09-10.06,0-15.08C234.57,891.65,238.3,888.19,242.29,887.29Z" transform="translate(0 -0.11)"/><path class="cls-4" d="M458.37,887.42c5.16-.9,10.46-.27,15.68-.44,4.8-.33,10,2.49,11.25,7.38.59,3.84.19,7.75.31,11.63-.11,3.34.5,7.11-1.65,10A10.43,10.43,0,0,1,475,920.4c-4.68,0-9.36.06-14,0a9.89,9.89,0,0,1-9.85-8.33c-.37-4.7-.1-9.41-.18-14.11A10.11,10.11,0,0,1,458.37,887.42Z" transform="translate(0 -0.11)"/><path class="cls-4" d="M512.36,887.49c5.14-1,10.45-.3,15.67-.52,4.8-.39,10.22,2.4,11.35,7.35.5,4.2.11,8.45.25,12.68-.13,2.78.38,5.87-1.18,8.37a9.8,9.8,0,0,1-8.45,5q-7.51.15-15,0c-5,0-9.78-4.25-9.64-9.32-.07-5-.1-10,0-15C505.31,891.94,508.66,888.62,512.36,887.49Z" transform="translate(0 -0.11)"/><path class="cls-4" d="M567.3,887.3c5.23-.66,10.54-.21,15.81-.3,5.1-.25,10.46,3.63,10.73,8.94.2,5,.16,10.07,0,15.1s-4.82,9.43-9.85,9.35-10.07.1-15.1,0-9.56-4.33-9.55-9.35c-.1-5.24-.24-10.49.08-15.72C559.9,891.25,563.48,888.16,567.3,887.3Z" transform="translate(0 -0.11)"/><path class="cls-4" d="M621.26,887.3c5.22-.68,10.53-.19,15.79-.31,5.19-.32,10.68,3.55,10.92,9a123.88,123.88,0,0,1,0,15c-.06,5.16-4.87,9.48-10,9.36-5.35,0-10.7.19-16-.13a9.61,9.61,0,0,1-8.4-9.18c-.06-5.05-.1-10.1,0-15.14C613.72,891.71,617.28,888.22,621.26,887.3Z" transform="translate(0 -0.11)"/><path class="cls-4" d="M675.33,887.34c5.2-.76,10.5-.2,15.75-.36,4.92-.35,10.1,3,10.9,8,.49,4.64.13,9.32.24,14,.22,3.5-1,7.21-3.9,9.34-3.77,3-8.88,1.84-13.33,2.07-4.88-.13-10.69,1-14.45-2.95-4.82-4.89-2.32-12.37-3-18.46A10.45,10.45,0,0,1,675.33,887.34Z" transform="translate(0 -0.11)"/><path class="cls-4" d="M729.3,887.35c5.19-.79,10.49-.21,15.73-.37a11.11,11.11,0,0,1,9.6,4.4c2.57,3.3,1.59,7.73,1.77,11.61-.2,4.85,1.1,10.73-2.91,14.46-3,3.16-7.53,3.1-11.51,3-3.67-.09-7.33.11-11-.09a9.74,9.74,0,0,1-9.12-9.28c-.16-5-.19-10.08,0-15.1A9.85,9.85,0,0,1,729.3,887.35Z" transform="translate(0 -0.11)"/><path class="cls-4" d="M783.41,887.39c5.15-.86,10.42-.23,15.62-.41,3.68-.18,7.61,1.2,9.74,4.34,2.5,3.37,1.43,7.8,1.65,11.7-.31,4.68,1.22,10.26-2.41,14-3.12,3.93-8.55,3.43-13,3.38-3.66-.1-7.34.22-11-.22-3.94-.75-7.48-4.11-7.85-8.2a101.88,101.88,0,0,1-.11-16C776.2,891.85,779.54,888.45,783.41,887.39Z" transform="translate(0 -0.11)"/><path class="cls-4" d="M837.34,887.46c4.82-1,9.8-.28,14.69-.49,4-.25,8.29.82,10.76,4.15,2.36,2.74,1.86,6.56,1.93,9.9-.08,3.63.14,7.27-.15,10.9-.47,4.67-4.94,8.37-9.56,8.44-5,.13-10,.08-15,0s-9.78-4.24-9.85-9.34-.19-10,0-15C830.31,892,833.59,888.59,837.34,887.46Z" transform="translate(0 -0.11)"/><path class="cls-4" d="M891.38,887.49c3.43-.9,7-.39,10.56-.51,3.22.07,6.52-.32,9.68.51,3.68,1.12,7,4.41,7,8.45.12,5,.07,10,0,15,.17,5.1-4.68,9.44-9.66,9.38s-10.08.1-15.11,0-9.54-4.29-9.46-9.25c-.1-5-.11-10.1,0-15.14C884.37,891.93,887.72,888.66,891.38,887.49Z" transform="translate(0 -0.11)"/><path class="cls-4" d="M946.33,887.3c5.56-.65,11.2-.26,16.8-.25,5.14.05,10,4.52,9.86,9.81,0,5.07.2,10.15-.13,15.22a9.93,9.93,0,0,1-9.8,8.31c-5,0-10.06.12-15.08,0s-9.55-4.32-9.51-9.34c-.12-5-.16-10,0-15C938.63,891.67,942.29,888.17,946.33,887.3Z" transform="translate(0 -0.11)"/><path class="cls-4" d="M1162.38,887.42c4.79-.92,9.73-.23,14.59-.46,4-.27,8.39.81,10.8,4.24,2.63,3.34,1.48,7.85,1.72,11.78-.28,4.91,1.3,10.93-2.93,14.62-3,3.16-7.6,2.89-11.56,2.83-3.68-.09-7.36.14-11-.1-4.62-.38-9-4.5-8.75-9.3-.07-5-.1-10.08,0-15.1C1155.14,891.8,1158.66,888.53,1162.38,887.42Z" transform="translate(0 -0.11)"/><path class="cls-4" d="M1216.42,887.47c4.76-1,9.7-.28,14.54-.51,3.77-.22,7.89.61,10.46,3.62,3.22,3.31,2.21,8.27,2.39,12.45-.23,4.92,1.14,11-3.15,14.62-3.89,3.84-9.73,2.56-14.64,2.77-4.62-.12-10.08.88-13.68-2.75-3.22-2.56-3.28-6.9-3.16-10.63.09-4-.2-8,.2-11.95C1209.85,891.39,1213,888.55,1216.42,887.47Z" transform="translate(0 -0.11)"/><path class="cls-4" d="M1270.36,887.53c5.47-1.11,11.15-.35,16.71-.53,5-.2,10.64,3.56,10.68,9,.11,5,.07,10,0,15.06.16,5.13-4.78,9.35-9.73,9.34-4.71.12-9.41,0-14.11,0a10,10,0,0,1-8.87-4.41c-2-2.58-1.54-6-1.6-9,.09-4-.18-8,.15-12C1264,891.41,1267.05,888.6,1270.36,887.53Z" transform="translate(0 -0.11)"/><path class="cls-4" d="M1325.33,887.32c4.85-.71,9.79-.2,14.69-.35,3.93-.23,8.28,1.11,10.46,4.63,2.22,3,1.38,6.92,1.54,10.4-.11,3.61.23,7.25-.22,10.85a10,10,0,0,1-9.78,7.54c-5,0-10,.12-15,0s-9.47-4.32-9.42-9.29c-.11-5-.15-10,0-15C1317.69,891.72,1321.29,888.2,1325.33,887.32Z" transform="translate(0 -0.11)"/><path class="cls-4" d="M187.41,939.72c5.84-.79,11.79-.29,17.67-.34,4.73-.07,9.37,3.8,9.62,8.62.21,5,.11,10,.07,15,.17,5.16-4.69,9.59-9.76,9.41q-7.5.08-15,0c-4.73.12-9.39-3.7-9.68-8.51-.27-5-.15-10-.09-14.94A9.67,9.67,0,0,1,187.41,939.72Z" transform="translate(0 -0.11)"/><path class="cls-4" d="M241.49,939.71c5.82-.79,11.74-.25,17.6-.35,4.71-.13,9.6,3.69,9.65,8.6.11,5.34.12,10.69,0,16-.08,4.89-5,8.61-9.71,8.42-5,0-10.07.05-15.1,0-5,.09-9.68-4.35-9.4-9.4,0-4.69,0-9.38,0-14.07C234.24,944.67,237.52,940.83,241.49,939.71Z" transform="translate(0 -0.11)"/><path class="cls-4" d="M296.41,939.55c5.81-.46,11.68-.2,17.52-.15s10,6,9.28,11.62c-.6,6.09,1.76,13.44-2.76,18.45-3.68,4.07-9.56,2.77-14.41,3-3.62-.14-7.33.41-10.88-.48-3.7-1.31-6.71-4.88-6.59-8.92-.09-4.69-.07-9.38,0-14.06C288.4,944.45,292.09,940.41,296.41,939.55Z" transform="translate(0 -0.11)"/><path class="cls-4" d="M512.39,939.71c5.51-.79,11.12-.23,16.67-.37,4.72-.36,9.77,2.94,10.41,7.8a155.72,155.72,0,0,1-.16,18.46,9.54,9.54,0,0,1-9.24,6.8q-7.53.09-15.07,0c-5.05.18-10-4.19-9.69-9.4,0-5.29-.19-10.59.13-15.87C505.89,943.53,509,940.66,512.39,939.71Z" transform="translate(0 -0.11)"/><path class="cls-4" d="M567.37,939.54c5.51-.45,11.07-.15,16.61-.18a9.78,9.78,0,0,1,9.92,9.54c.09,4.7.1,9.41,0,14.12a9.67,9.67,0,0,1-9.83,9.39c-5,0-10,.06-15.07,0-4.68.06-9.3-3.74-9.58-8.51-.25-5-.12-9.93-.09-14.89A9.66,9.66,0,0,1,567.37,939.54Z" transform="translate(0 -0.11)"/><path class="cls-4" d="M621.33,939.55c5.55-.47,11.15-.16,16.72-.19,4.85-.2,9.57,3.69,9.9,8.62.51,5.31,0,10.67-.17,16,0,4.92-5,8.65-9.69,8.45-5.05,0-10.1.05-15.14,0-5,.1-9.56-4.34-9.35-9.34,0-5.37-.24-10.76.16-16.11A9.57,9.57,0,0,1,621.33,939.55Z" transform="translate(0 -0.11)"/><path class="cls-4" d="M675.41,939.57c5.8-.5,11.64-.19,17.46-.19a9.64,9.64,0,0,1,9.3,9.56c0,5,.18,10-.09,15.08a9.44,9.44,0,0,1-9,8.36q-8.08.15-16.18,0c-4.52-.07-8.84-3.79-9.2-8.36s-.08-9.38-.13-14.06A9.91,9.91,0,0,1,675.41,939.57Z" transform="translate(0 -0.11)"/><path class="cls-4" d="M729.42,939.57c5.51-.52,11.08-.15,16.62-.23,4.9-.26,9.86,3.57,10.26,8.58.23,4.69.06,9.41.1,14.12a9.71,9.71,0,0,1-9.31,10.34c-5.38.1-10.76.09-16.13,0a9.45,9.45,0,0,1-9.11-9.3c-.09-5-.18-10.08,0-15.1A9.63,9.63,0,0,1,729.42,939.57Z" transform="translate(0 -0.11)"/><path class="cls-4" d="M784.33,939.47c5.56-.3,11.16-.14,16.74-.08,5,0,9.59,4.48,9.34,9.55,0,4.7,0,9.41,0,14.12.2,5-4.44,9.46-9.4,9.34-5.34,0-10.68.11-16,0a9.4,9.4,0,0,1-8.9-8.32,106,106,0,0,1,0-16A9.53,9.53,0,0,1,784.33,939.47Z" transform="translate(0 -0.11)"/><path class="cls-4" d="M838.38,939.49c5.51-.33,11-.15,16.56-.11,4.76,0,9.44,3.84,9.67,8.71s.12,10,0,15c.12,5.09-4.63,9.43-9.62,9.35-5,.07-10,.05-15,0a9.64,9.64,0,0,1-9.78-8.36c-.31-5-.17-10.08-.11-15.11A9.71,9.71,0,0,1,838.38,939.49Z" transform="translate(0 -0.11)"/><path class="cls-4" d="M891.42,939.71c5.47-.8,11.05-.23,16.58-.37a10.39,10.39,0,0,1,8.85,3.87c2.93,3.58,1.54,8.53,1.86,12.78-.24,4.62,1.16,10.34-2.87,13.78-4,3.84-9.86,2.4-14.82,2.66-4.64-.16-10.13,1-13.79-2.65-3.47-2.94-2.83-7.77-2.85-11.81.11-3.87-.27-7.77.28-11.61A9.62,9.62,0,0,1,891.42,939.71Z" transform="translate(0 -0.11)"/><path class="cls-4" d="M1109.34,939.45c5.54-.25,11.11-.14,16.66-.06,5,.06,9.6,4.5,9.44,9.55.06,4.7.06,9.42,0,14.13.11,5-4.51,9.31-9.39,9.32-5.37.07-10.75.1-16.11,0a9.55,9.55,0,0,1-9-9.29c-.16-5-.24-10.06.06-15.07A9.63,9.63,0,0,1,1109.34,939.45Z" transform="translate(0 -0.11)"/><path class="cls-4" d="M1163.32,939.48c5.55-.33,11.13-.14,16.69-.1,5-.08,9.79,4.43,9.48,9.56,0,4.68,0,9.36,0,14,.28,5.07-4.46,9.53-9.43,9.41-5,.07-10,0-15.07,0-4.68.2-9.6-3.51-9.71-8.39-.14-5.35-.12-10.71,0-16C1155.26,943.64,1159.18,940.05,1163.32,939.48Z" transform="translate(0 -0.11)"/><path class="cls-4" d="M1216.4,939.69c5.51-.76,11.12-.22,16.68-.35,4.81-.34,9.82,3.06,10.53,8,.41,4.22.09,8.47.21,12.71.21,3.68-.37,7.9-3.61,10.2-5.22,3.9-12.19,1.55-18.2,2.22-5.11.73-11.13-1.63-12.47-7-.7-5.44-.26-11-.3-16.45C1209,944.66,1212.34,940.78,1216.4,939.69Z" transform="translate(0 -0.11)"/><path class="cls-4" d="M1270.4,939.71c5.49-.8,11.1-.23,16.64-.37,4.76-.37,9.93,2.89,10.62,7.81.23,5.89.27,11.82,0,17.72-.7,4.44-5.22,7.64-9.6,7.53-5,.06-10,.06-15.06,0-5,.17-9.72-4.28-9.47-9.33,0-5.37-.22-10.75.14-16.1A9.46,9.46,0,0,1,1270.4,939.71Z" transform="translate(0 -0.11)"/><path class="cls-4" d="M1325.42,939.55c5.5-.47,11.06-.16,16.59-.19a9.79,9.79,0,0,1,8.39,4.3c2.25,3,1.49,6.87,1.62,10.33-.1,3.63.21,7.28-.19,10.91a9.59,9.59,0,0,1-8.79,7.46c-5.37.15-10.74.1-16.1,0-4.92,0-9.56-4.32-9.4-9.32-.1-4.7-.09-9.4,0-14.09C1317.32,944.43,1321,940.33,1325.42,939.55Z" transform="translate(0 -0.11)"/><path class="cls-4" d="M243.3,991.48c5.22-.25,10.46-.13,15.69-.07,5.07-.07,10.15,4.28,9.79,9.57,0,5.3.18,10.61-.12,15.91-.63,5-5.87,8.18-10.61,7.95-5.25-.12-10.53.31-15.75-.28-4.33-.89-8-5-7.77-9.52,0-4.7-.06-9.4,0-14.09C234.36,996.14,238.62,991.89,243.3,991.48Z" transform="translate(0 -0.11)"/><path class="cls-4" d="M296.39,991.65c5.53-.59,11.13-.23,16.68-.23,4.83-.1,9.5,3.72,9.94,8.61s.22,10.05.11,15.08a9.73,9.73,0,0,1-4.81,8.21c-3.37,2.14-7.54,1.39-11.31,1.52-3.78-.15-7.66.41-11.37-.51-3.9-1.29-7.19-5-7.06-9.25-.08-4.73-.09-9.46,0-14.17C288.52,996.45,292.2,992.61,296.39,991.65Z" transform="translate(0 -0.11)"/><path class="cls-4" d="M350.41,991.65c5.51-.6,11.08-.21,16.61-.24,5.63-.22,10.77,4.86,10.3,10.56-.17,5.29.51,10.69-.5,15.93a10.3,10.3,0,0,1-9.74,6.89c-4.73.09-9.46.07-14.19,0-4.83.1-9.67-3.74-10-8.69s-.13-10.13-.06-15.18C342.74,996.54,346.22,992.6,350.41,991.65Z" transform="translate(0 -0.11)"/><path class="cls-4" d="M567.42,991.62c5.52-.52,11.08-.23,16.62-.19,4.74,0,9.32,3.79,9.76,8.59s.11,9.37.14,14.05a10.16,10.16,0,0,1-9.93,10.72c-5,.08-10,.13-15,0-4.75-.13-9.33-4-9.57-8.87s-.14-9.94-.06-14.89A9.84,9.84,0,0,1,567.42,991.62Z" transform="translate(0 -0.11)"/><path class="cls-4" d="M621.41,991.62c5.48-.53,11-.2,16.53-.21,4.79-.08,9.53,3.65,10,8.54.56,5.34.18,10.73-.1,16.08,0,3.87-3.14,7.06-6.66,8.23s-7.47.42-11.19.58c-4.44-.11-9.65.78-13.16-2.64-5.37-4.9-2.47-12.87-3.23-19.21C612.8,997.88,616.25,992.55,621.41,991.62Z" transform="translate(0 -0.11)"/><path class="cls-4" d="M675.45,991.67c5.5-.63,11.08-.23,16.61-.26,4.81-.13,9.57,3.63,10,8.53s.15,10.09.11,15.14a9.89,9.89,0,0,1-6.81,9.19c-3.68,1-7.56.4-11.33.57-4.45-.06-9.62.69-13.13-2.72-3-2.41-3.53-6.49-3.32-10.1.1-4-.17-8.06.16-12.07A9.92,9.92,0,0,1,675.45,991.67Z" transform="translate(0 -0.11)"/><path class="cls-4" d="M729.4,991.68c5.52-.65,11.12-.24,16.67-.27,4.84-.13,9.67,3.58,10.19,8.51.31,4.69.08,9.41.14,14.13A9.92,9.92,0,0,1,752,1023c-3.78,2.67-8.64,1.65-13,1.85-4.77-.12-10.38.93-14.13-2.81-3.8-3.22-3.1-8.58-3.13-13,.11-3.59-.36-7.26.5-10.77A10,10,0,0,1,729.4,991.68Z" transform="translate(0 -0.11)"/><path class="cls-4" d="M784.34,991.56c5.52-.4,11.08-.2,16.63-.12,5,0,9.59,4.5,9.43,9.56.05,4.69,0,9.39,0,14.08.2,5.08-4.41,9.55-9.39,9.68s-10,.1-15,0c-4.51,0-9-3.29-9.8-7.85-.82-5.29-.06-10.65,0-16C775.83,996.29,779.86,992.23,784.34,991.56Z" transform="translate(0 -0.11)"/><path class="cls-4" d="M838.4,991.57c5.52-.42,11.09-.21,16.63-.12,4.69.08,9.2,3.91,9.56,8.68.27,3.94,0,7.91.14,11.87,0,2.76.14,5.81-1.58,8.18a10.61,10.61,0,0,1-9,4.63c-4.7,0-9.41.09-14.1,0s-9.48-3.9-9.81-8.79-.19-10.06-.08-15.08A9.88,9.88,0,0,1,838.4,991.57Z" transform="translate(0 -0.11)"/><path class="cls-4" d="M1054.43,991.69c5.51-.67,11.11-.24,16.67-.29,5.16-.21,10.21,4.23,10,9.53,0,5.36.26,10.74-.17,16.09-.81,4.58-5.4,7.9-10,7.8-4.72,0-9.44.07-14.15,0s-9.65-3.76-10.06-8.71-.17-10.11-.08-15.16A9.91,9.91,0,0,1,1054.43,991.69Z" transform="translate(0 -0.11)"/><path class="cls-4" d="M1108.38,991.72c5.53-.74,11.16-.25,16.73-.32,5.2-.18,10.37,4.18,10.32,9.54.08,4.67.06,9.35,0,14,.16,5.08-4.44,9.51-9.4,9.78-3.68.22-7.36,0-11,.11-3.15,0-6.58.27-9.32-1.55a9.73,9.73,0,0,1-4.79-8.24c-.16-4.73-.18-9.48,0-14.2A9.89,9.89,0,0,1,1108.38,991.72Z" transform="translate(0 -0.11)"/><path class="cls-4" d="M1163.33,991.57c5.48-.42,11-.19,16.5-.15a10,10,0,0,1,9.47,7.57c.43,4.3.07,8.64.21,13-.09,2.7.31,5.72-1.37,8.07a10.36,10.36,0,0,1-9,4.79c-4.71,0-9.42.08-14.12,0s-9.68-3.82-9.72-8.8c-.08-5.64-.23-11.29.1-16.91C1155.94,995.2,1159.56,992.2,1163.33,991.57Z" transform="translate(0 -0.11)"/><path class="cls-4" d="M1217.41,991.59c5.52-.46,11.09-.22,16.63-.15,4.7,0,9.26,3.86,9.63,8.65.29,3.95.07,7.92.15,11.89-.06,2.76.14,5.81-1.57,8.18a10.69,10.69,0,0,1-9.23,4.66c-4.7,0-9.41.1-14.11,0s-9.3-3.89-9.58-8.71c-.26-5-.16-10-.08-15.06C1209.12,996.38,1213,992.33,1217.41,991.59Z" transform="translate(0 -0.11)"/><path class="cls-4" d="M1272.31,991.47c5.17-.23,10.37-.13,15.55-.05a10.18,10.18,0,0,1,9.61,6.92c.66,4.18.19,8.44.35,12.65-.13,3.1.45,6.6-1.5,9.28a10.81,10.81,0,0,1-9.29,4.55c-4.69,0-9.38.1-14,0-4.85-.06-9.48-4.2-9.47-9.15s0-9.67,0-14.5C1263.24,996.25,1267.49,991.79,1272.31,991.47Z" transform="translate(0 -0.11)"/><path class="cls-4" d="M1325.45,991.64c5.52-.56,11.11-.24,16.67-.21a10.05,10.05,0,0,1,9.7,7.65c.43,4,.08,7.95.21,11.93-.11,2.92.42,6.16-1.27,8.76a10.3,10.3,0,0,1-8.72,5c-5,.08-10,.14-15,0s-9.68-4.57-9.48-9.68c0-5.37-.3-10.76.19-16.09A10,10,0,0,1,1325.45,991.64Z" transform="translate(0 -0.11)"/><path class="cls-4" d="M295.3,1044.2c4.15-.92,8.46-.29,12.68-.47,3.58.11,7.54-.56,10.71,1.54a9.83,9.83,0,0,1,4.48,8.63c0,4.7.18,9.42-.11,14.13a9.72,9.72,0,0,1-10,8.76c-5.05,0-10.11.07-15.15,0a9.7,9.7,0,0,1-9.31-8.75c-.21-4.67-.06-9.35-.09-14A9.61,9.61,0,0,1,295.3,1044.2Z" transform="translate(0 -0.11)"/><path class="cls-4" d="M349.26,1044.22c5.85-1,11.87-.29,17.8-.47,4.76-.25,9.61,3.29,10.12,8.17.34,4.69.08,9.41.15,14.12a10,10,0,0,1-4.3,9c-3.8,2.69-8.7,1.46-13,1.73-3.69-.18-7.53.51-11.11-.62a9.49,9.49,0,0,1-6-8.15c-.18-5-.11-10.09,0-15.12A9.24,9.24,0,0,1,349.26,1044.22Z" transform="translate(0 -0.11)"/><path class="cls-4" d="M403.28,1044.33c5.81-1.23,11.86-.35,17.77-.59,4.81-.38,9.78,3.27,10.18,8.21.21,5,.07,10.09.09,15.14a9.48,9.48,0,0,1-9.32,9.67c-5,.09-10.07,0-15.11,0a9.67,9.67,0,0,1-9.91-8.7c-.35-4.35-.14-8.73-.18-13.08C396.38,1050.5,398.82,1045.75,403.28,1044.33Z" transform="translate(0 -0.11)"/><path class="cls-4" d="M620.27,1044.17c5.16-.93,10.47-.22,15.7-.45,3.56-.22,7.5.53,9.86,3.46,2.54,2.61,2,6.47,2.06,9.79-.14,4.22.24,8.47-.24,12.69a9.65,9.65,0,0,1-9.61,7.13c-5,0-10,.06-15.06,0a9.43,9.43,0,0,1-9.34-8.7c-.17-4.7,0-9.4-.07-14.09A9.44,9.44,0,0,1,620.27,1044.17Z" transform="translate(0 -0.11)"/><path class="cls-4" d="M674.3,1044.24c4.16-1,8.5-.33,12.75-.51,3.55.11,7.51-.57,10.67,1.49a9.32,9.32,0,0,1,4.43,7.73c.13,4.7.09,9.41,0,14.12a9.66,9.66,0,0,1-9.13,9.68c-5.62.06-11.26.17-16.87-.06-5.6-.52-9.4-6.3-8.59-11.69.1-4.38-.18-8.76.17-13.11A9.41,9.41,0,0,1,674.3,1044.24Z" transform="translate(0 -0.11)"/><path class="cls-4" d="M728.32,1044.25c4.14-1,8.47-.33,12.7-.52,3.59.11,7.55-.56,10.76,1.47a9.18,9.18,0,0,1,4.57,7.71c.11,4.69.06,9.38,0,14.08a9.76,9.76,0,0,1-9.33,9.76c-5,.12-10.07,0-15.1,0a9.7,9.7,0,0,1-8.44-4.24c-3-5-1.22-11.12-1.74-16.6C721.17,1051.15,723.37,1045.73,728.32,1044.25Z" transform="translate(0 -0.11)"/><path class="cls-4" d="M782.35,1044.33c5.78-1.23,11.8-.35,17.68-.58,4.84-.4,9.9,3.18,10.31,8.18.19,5,.06,10,.07,15.08a9.49,9.49,0,0,1-9.35,9.75c-5,.09-10.09,0-15.13,0a9.84,9.84,0,0,1-8.79-5c-2.22-5.61-1.07-11.9-1.22-17.79A9.66,9.66,0,0,1,782.35,1044.33Z" transform="translate(0 -0.11)"/><path class="cls-4" d="M999.33,1044.17c4.15-.87,8.45-.27,12.67-.44s9.19-.52,12.37,2.89c3.41,3.16,2.78,8.16,2.84,12.36-.1,3.62.29,7.32-.5,10.9a9.77,9.77,0,0,1-9.68,6.91c-5,0-10.07.06-15.1,0a9.41,9.41,0,0,1-9.19-8.71c-.15-5-.08-10.06,0-15.08A9.3,9.3,0,0,1,999.33,1044.17Z" transform="translate(0 -0.11)"/><path class="cls-4" d="M1053.32,1044.27c3.47-.93,7.13-.43,10.69-.53,3.3,0,6.63-.24,9.91.28a9.21,9.21,0,0,1,7.23,8.93c0,5,.12,10.07,0,15.1a9.42,9.42,0,0,1-9.09,8.71c-5,.1-10.06,0-15.09,0a10,10,0,0,1-8.9-4.81c-2.54-5.27-.9-11.39-1.38-17C1046.16,1050.37,1048.78,1045.61,1053.32,1044.27Z" transform="translate(0 -0.11)"/><path class="cls-4" d="M1107.31,1044.3c3.45-1,7.1-.46,10.65-.56,3.31,0,6.65-.23,10,.27,4.09.88,7.62,4.66,7.52,9,.09,4.66,0,9.34,0,14a9.75,9.75,0,0,1-9.39,9.76c-5.06.1-10.11,0-15.15,0a9.67,9.67,0,0,1-9.94-8.8c-.31-5-.23-10-.08-15.06A9.55,9.55,0,0,1,1107.31,1044.3Z" transform="translate(0 -0.11)"/><path class="cls-4" d="M1161.34,1044.35c3.44-1.07,7.12-.49,10.68-.61,3.32,0,6.68-.23,10,.24,4.13.84,7.66,4.68,7.46,9,0,5,.09,10,0,15.06-.13,5.21-5.38,9.22-10.43,8.75-5.57-.16-11.17.34-16.69-.31-3.76-1-7.12-4.43-7.06-8.48-.1-5.35-.15-10.71,0-16.06C1155.35,1048.43,1158.18,1045.54,1161.34,1044.35Z" transform="translate(0 -0.11)"/><path class="cls-4" d="M1215.38,1044.4c5.75-1.37,11.8-.38,17.68-.66,5-.4,10.25,3.25,10.61,8.41.27,5,.13,9.94.09,14.92a9.67,9.67,0,0,1-7.93,9.54c-4.27.43-8.57.07-12.85.21-3.8.1-8.16.2-10.93-2.87-3.15-2.74-2.92-7.17-2.87-11s-.14-7.27.13-10.88S1212.23,1045.68,1215.38,1044.4Z" transform="translate(0 -0.11)"/><path class="cls-4" d="M1269.34,1044.45c3.08-1.11,6.42-.63,9.64-.72,3.66.08,7.36-.23,11,.23,4.22.73,8,4.54,7.77,9,0,5,.1,10.07,0,15.11s-4.9,8.86-9.68,8.71c-5,.06-10.08.07-15.11,0a9.58,9.58,0,0,1-8.5-5.16c-2-5.94-.57-12.5-1-18.68A9.13,9.13,0,0,1,1269.34,1044.45Z" transform="translate(0 -0.11)"/><path class="cls-4" d="M1324.31,1044.19c3.48-.81,7.1-.36,10.66-.46,3.29.06,6.64-.26,9.91.38a9.33,9.33,0,0,1,7.11,8.81c.07,4.72,0,9.45,0,14.18a9.56,9.56,0,0,1-9,9.63c-5.34.14-10.68.09-16,0-4.71,0-9.19-3.94-9.41-8.68-.2-5-.12-10.08,0-15.1C1317.4,1048.91,1320.56,1045.35,1324.31,1044.19Z" transform="translate(0 -0.11)"/><path class="cls-4" d="M349.33,1096.34c3.77-1,7.75-.44,11.62-.59,4.54,0,9.89-.68,13.39,2.9,2.94,2.58,3.16,6.7,3,10.34-.12,4,.2,8-.21,12-.72,4.7-5.38,8.13-10,8-4.73,0-9.46,0-14.18,0-4.67.23-9.42-3.28-9.94-8-.35-5-.12-10-.15-15A9.63,9.63,0,0,1,349.33,1096.34Z" transform="translate(0 -0.11)"/><path class="cls-4" d="M403.37,1096.43c3.08-1,6.41-.6,9.61-.68s6.73-.19,10.07.2c4.37.55,8.22,4.48,8.23,9,.09,5,.1,10.12,0,15.18,0,4.46-3.95,8.21-8.23,8.8-4,.3-8.07,0-12.1.13-2.92-.07-6.06.34-8.72-1.13a9.32,9.32,0,0,1-5.26-7.8c-.28-5.06-.25-10.14,0-15.18A9.7,9.7,0,0,1,403.37,1096.43Z" transform="translate(0 -0.11)"/><path class="cls-4" d="M457.34,1096.48c3.08-1.11,6.43-.65,9.64-.73,3.64.08,7.33-.27,10.94.37,4.08.84,7.59,4.59,7.61,8.86.12,5,.13,10,0,15s-4.73,8.86-9.47,9c-5,.1-10,0-15.05,0a10,10,0,0,1-9.51-6.59c-1-6.28-.61-12.82-.22-19.15A9.85,9.85,0,0,1,457.34,1096.48Z" transform="translate(0 -0.11)"/><path class="cls-4" d="M512.31,1096.21c4.82-.93,9.79-.26,14.68-.47,3.8-.21,8.12.44,10.54,3.72,3.07,3.45,1.84,8.35,2.08,12.54-.31,4.68,1.26,10.38-2.61,14-3.33,3.68-8.6,3-13,3-3.61-.1-7.23.22-10.82-.2-4.1-.81-7.85-4.44-7.79-8.78-.1-5-.09-10,0-15C505.26,1100.9,508.49,1097.3,512.31,1096.21Z" transform="translate(0 -0.11)"/><path class="cls-4" d="M566.27,1096.28c3.18-.85,6.52-.46,9.78-.53s6.65-.23,9.94.28a9.74,9.74,0,0,1,7.87,8.87q.24,7.56,0,15.13c-.18,5-4.89,9-9.77,9-4.36.09-8.72,0-13.08,0a11,11,0,0,1-10.33-4.75c-2.65-5.33-.89-11.62-1.39-17.34A10.06,10.06,0,0,1,566.27,1096.28Z" transform="translate(0 -0.11)"/><path class="cls-4" d="M620.27,1096.29c3.17-.88,6.51-.46,9.77-.54s6.65-.22,10,.26a9.74,9.74,0,0,1,8,8.93,117.21,117.21,0,0,1,0,15.11c-.12,5-4.94,9.06-9.85,9-5.07,0-10.14.07-15.2,0-4.72-.09-9.3-4.1-9.28-9-.11-5-.1-10.06,0-15.08C613.59,1101,616.62,1097.47,620.27,1096.29Z" transform="translate(0 -0.11)"/><path class="cls-4" d="M674.31,1096.38c3.8-1.12,7.83-.47,11.74-.63,4.5,0,9.85-.72,13.27,2.93,3.9,3.69,2.71,9.46,2.9,14.26-.08,4.51.77,9.93-3,13.32-3.75,3.81-9.42,2.58-14.19,2.75-4.83-.17-10.48,1-14.34-2.66-3.65-3-3.16-8.12-3.12-12.36.12-3.64-.31-7.32.35-10.9A9.89,9.89,0,0,1,674.31,1096.38Z" transform="translate(0 -0.11)"/><path class="cls-4" d="M728.32,1096.38c3.78-1.13,7.8-.46,11.69-.63,3.88.13,8.16-.61,11.64,1.55a9.69,9.69,0,0,1,4.74,8.64c0,4.7.11,9.42-.07,14.14s-4.56,8.68-9.22,8.88c-5.06.13-10.12,0-15.17,0-5,.27-9.84-3.87-10-8.93s-.17-10.09,0-15.12A9.7,9.7,0,0,1,728.32,1096.38Z" transform="translate(0 -0.11)"/><path class="cls-4" d="M782.35,1096.46c2.77-1,5.78-.66,8.68-.71,3.67.08,7.35-.2,11,.19,4.43.48,8.35,4.5,8.34,9,.07,5,.09,10,0,15a9.16,9.16,0,0,1-5.33,8c-2.47,1.34-5.38,1-8.08,1-4-.1-8,.12-12-.09-4.57-.32-8.77-4.2-8.87-8.88a112.19,112.19,0,0,1,0-15.12A9.65,9.65,0,0,1,782.35,1096.46Z" transform="translate(0 -0.11)"/><path class="cls-4" d="M836.43,1096.48c3.05-1.09,6.36-.66,9.55-.73,3.63.08,7.32-.27,10.94.34,4.1.85,7.64,4.57,7.72,8.87.13,5,.12,9.94,0,14.91,0,5.37-5.43,9.52-10.6,9.15-5.3-.1-10.62.22-15.91-.18-4.17-.77-7.83-4.45-8-8.78-.19-5-.19-10.11,0-15.15A9.65,9.65,0,0,1,836.43,1096.48Z" transform="translate(0 -0.11)"/><path class="cls-4" d="M891.24,1096.23c4.85-1,9.86-.26,14.77-.49,3.79-.21,8.06.43,10.53,3.64,2.51,2.56,2.17,6.33,2.18,9.63-.1,4,.14,7.91-.12,11.86-.42,4.63-5,8.14-9.55,8.12q-7.56.08-15.12,0c-4.83,0-9.61-4.08-9.5-9.07-.11-4.66,0-9.31,0-14A9.6,9.6,0,0,1,891.24,1096.23Z" transform="translate(0 -0.11)"/><path class="cls-4" d="M945.26,1096.32c3.83-1,7.83-.43,11.75-.57,3.66.1,7.65-.54,11,1.36a9.79,9.79,0,0,1,5,8.85c0,4.68.11,9.37,0,14.06-.18,5-5,9.12-9.92,9-5,0-10.06.07-15.07,0-4.75-.08-9.41-4-9.48-8.94s-.14-10,0-15C938.47,1101,941.55,1097.48,945.26,1096.32Z" transform="translate(0 -0.11)"/><path class="cls-4" d="M999.32,1096.31c3.13-.9,6.43-.48,9.66-.56s6.69-.21,10,.25a9.78,9.78,0,0,1,8.08,8.94c.2,5,.22,10.1,0,15.14a9.69,9.69,0,0,1-9,8.87c-5.38.14-10.76.08-16.13,0-4.7-.11-9.19-4.14-9.2-9-.08-5.35-.19-10.72.07-16.06A9.5,9.5,0,0,1,999.32,1096.31Z" transform="translate(0 -0.11)"/><path class="cls-4" d="M1053.32,1096.39c3.11-1,6.45-.56,9.67-.64s6.67-.2,10,.19a9.49,9.49,0,0,1,8.14,9c.14,4.7.06,9.42.05,14.14a9.35,9.35,0,0,1-4.6,8.5c-3.45,2.2-7.71,1.26-11.56,1.44-5.13-.26-11.18,1.22-15.3-2.72-4.91-4.77-2.44-12.23-3.06-18.26C1046,1103.2,1048.47,1097.92,1053.32,1096.39Z" transform="translate(0 -0.11)"/><path class="cls-4" d="M1107.33,1096.42c3.78-1.19,7.81-.5,11.71-.67,4.52,0,9.84-.72,13.37,2.83,3.89,3.32,3,8.83,3.06,13.38-.1,3.34.31,6.75-.37,10.06a10.14,10.14,0,0,1-10,7c-4.71,0-9.42,0-14.12,0-5,.21-9.85-3.91-10-9s-.24-10.06,0-15.08A9.77,9.77,0,0,1,1107.33,1096.42Z" transform="translate(0 -0.11)"/><path class="cls-4" d="M1161.37,1096.47c2.73-1,5.73-.67,8.61-.73,3.67.09,7.36-.18,11,.17,4.85.5,9,5.12,8.49,10.08-.13,5.33.28,10.69-.24,16-1.4,5.25-7.22,7.73-12.27,7-6.33-.71-13.94,1.93-19.11-2.9-3.3-2.75-2.66-7.33-2.69-11.13s-.22-7.81.18-11.68C1155.86,1100.16,1158.5,1097.66,1161.37,1096.47Z" transform="translate(0 -0.11)"/><path class="cls-4" d="M1216.24,1096.22c5.51-1,11.17-.29,16.75-.45,5.26-.38,10.64,3.78,10.73,9.22.14,5,.15,10,0,15.07s-4.8,8.89-9.58,8.92c-5.07.07-10.14.06-15.2,0-4.82,0-9.56-4-9.64-8.94s-.16-10.06,0-15.07C1209.28,1100.9,1212.46,1097.38,1216.24,1096.22Z" transform="translate(0 -0.11)"/><path class="cls-4" d="M1270.34,1096.22c5.51-1,11.17-.28,16.74-.45,5.21-.36,10.82,3.75,10.68,9.26.07,5,.09,10,0,15,.07,5-4.85,8.93-9.63,8.94-5.07,0-10.14.06-15.2,0-4.89,0-9.63-4.24-9.43-9.27q-.08-7.28,0-14.53C1263.37,1101.08,1266.51,1097.36,1270.34,1096.22Z" transform="translate(0 -0.11)"/><path class="cls-5" d="M133.43,522.32c5.47-.77,11.07-.1,16.59-.35a10.23,10.23,0,0,1,10.31,7c.43,5.32.06,10.68.2,16,.57,5.28-4.19,10.18-9.4,10.22s-10.17,0-15.25,0c-4.84-.05-9.72-4.12-9.64-9.15s-.06-10.12,0-15.17C126.17,526.75,129.67,523.44,133.43,522.32Z" transform="translate(0 -0.11)"/><path class="cls-5" d="M187.42,522.34c5.48-.81,11.1-.11,16.63-.37,5.13-.45,10.56,3.65,10.69,9,.08,5,.07,10.09,0,15.14s-4.78,9.11-9.64,9.14q-7.59,0-15.2,0c-4.87-.07-9.53-4.2-9.62-9.17s-.1-10.06,0-15.08C180.36,526.87,183.67,523.52,187.42,522.34Z" transform="translate(0 -0.11)"/><path class="cls-5" d="M241.47,522.37c5.44-.87,11-.12,16.53-.4,4.58-.4,9.55,2.59,10.63,7.19.4,5.3.07,10.64.18,16,.63,5.41-4.48,10.17-9.7,10.12s-10.17,0-15.25,0c-4.77-.13-9.4-4.28-9.33-9.18s0-10,0-15C234.39,526.92,237.78,523.56,241.47,522.37Z" transform="translate(0 -0.11)"/><path class="cls-5" d="M295.4,522.48c3.42-1,7.08-.29,10.6-.47,4.78.12,10.42-1.07,14.15,2.76,3.24,2.79,3.21,7.35,3.05,11.26-.13,3.65.24,7.32-.19,11a10.06,10.06,0,0,1-10,8.25c-4.69,0-9.38,0-14.07,0-5.1.25-10.17-3.93-10.36-9.14-.13-4.69,0-9.38-.05-14.07A9.75,9.75,0,0,1,295.4,522.48Z" transform="translate(0 -0.11)"/><path class="cls-5" d="M79.32,574.47c5.56-.59,11.19-.13,16.79-.26,5.39-.44,10.7,4.27,10.39,9.78,0,4.68,0,9.37,0,14,.13,5-4.6,9.21-9.44,9.19-5,.06-10.05,0-15.07,0-5,.29-10.06-4.06-10-9.19,0-4.73,0-9.45,0-14.17C71.77,579.53,75.16,575.51,79.32,574.47Z" transform="translate(0 -0.11)"/><path class="cls-5" d="M133.37,574.51c5.52-.69,11.12-.12,16.68-.32a9.83,9.83,0,0,1,8.73,4c2.72,3.34,1.46,7.89,1.73,11.84-.35,4.71,1.33,10.32-2.38,14.11-3.5,4.16-9.32,3-14.1,3.09-5.15-.23-11.33,1.27-15.3-3-3.46-3.15-2.38-8.13-2.52-12.27.1-3.55-.25-7.13.21-10.65A10,10,0,0,1,133.37,574.51Z" transform="translate(0 -0.11)"/><path class="cls-5" d="M187.39,574.54c5.84-.73,11.78-.17,17.67-.32,5.13-.16,10,4.48,9.72,9.67,0,4.73,0,9.47,0,14.21.09,5-4.79,9.3-9.7,9.15H189.93a9.91,9.91,0,0,1-9.05-6c-1.2-3.63-.48-7.53-.66-11.27.11-3.09-.38-6.28.51-9.28A10.16,10.16,0,0,1,187.39,574.54Z" transform="translate(0 -0.11)"/><path class="cls-5" d="M241.37,574.56c5.5-.82,11.14-.13,16.7-.37a10,10,0,0,1,10.53,7.08c.48,4.55.06,9.14.22,13.71-.11,2.54.38,5.4-1.18,7.63a9.9,9.9,0,0,1-8.59,4.65c-5,0-10.08,0-15.11,0-4.87.12-9.63-4.21-9.42-9.19,0-5-.06-10.07,0-15.1C234.58,579,237.78,575.73,241.37,574.56Z" transform="translate(0 -0.11)"/><path class="cls-5" d="M79.46,626.55c4.79-.84,9.71-.16,14.55-.39,3.7-.22,7.78.62,10.19,3.69,3.18,3.25,2.15,8.06,2.29,12.16a99.28,99.28,0,0,1-.19,10.06,10.2,10.2,0,0,1-9.26,7.5c-5.05.11-10.11.06-15.16,0s-10-4.36-9.89-9.55c0-4.72,0-9.45,0-14.17C71.83,631.51,75.36,627.63,79.46,626.55Z" transform="translate(0 -0.11)"/><path class="cls-5" d="M134.38,626.39c4.89-.51,9.82-.07,14.72-.23,3.65-.23,7.56,1.07,9.66,4.21,2.73,3.25,1.5,7.73,1.75,11.6-.33,4.92,1.39,10.89-2.75,14.68-3.48,3.93-9.1,2.87-13.74,3-5.18-.16-11.49,1.15-15.34-3.3-3.43-3.2-2.31-8.18-2.47-12.34.1-3.55-.28-7.14.24-10.66A10.3,10.3,0,0,1,134.38,626.39Z" transform="translate(0 -0.11)"/><path class="cls-5" d="M188.38,626.41c4.87-.55,9.8-.08,14.69-.25,3.62-.22,7.47,1,9.71,4,3.05,3.58,1.72,8.58,2,12.86-.22,4.43,1.06,9.74-2.49,13.22-4.93,5.46-12.91,2.71-19.3,3.4-5.33.77-11.45-2.18-12.54-7.79-.5-5.29-.15-10.64-.21-16C180.13,631.28,184,627.25,188.38,626.41Z" transform="translate(0 -0.11)"/><path class="cls-5" d="M78.27,679.19c3.79-1.2,7.85-.39,11.76-.61,4.6.12,10.07-1,13.6,2.8,4,3.42,2.69,9,2.86,13.61-.18,4.63,1.09,10.18-2.75,13.73-3.82,4.11-9.8,2.72-14.77,2.93-4.7-.2-10.28,1.1-14-2.66-5-4.65-2.32-12-3-18C71.17,686.2,73.41,680.82,78.27,679.19Z" transform="translate(0 -0.11)"/><path class="cls-5" d="M132.32,679.26c3.72-1.31,7.77-.45,11.64-.68,4,.24,8.44-.87,12,1.39a9.07,9.07,0,0,1,4.51,8V702c.38,5.1-4.38,9.7-9.41,9.62s-10.11,0-15.17,0-10.11-4.38-9.73-9.62c0-5-.08-10,.05-15.06C126.37,683.43,129.16,680.51,132.32,679.26Z" transform="translate(0 -0.11)"/><path class="cls-5" d="M78.3,731.28c3.75-1.31,7.82-.47,11.7-.68,4.8,0,10.61-.77,14,3.4,3.52,3.43,2.25,8.67,2.46,13.06-.22,4.63,1.14,10.18-2.67,13.77-4.37,4.6-11.17,2.85-16.8,3.18-4.57.26-10.08.19-13-4-2.94-3.36-1.81-8-2-12,.07-3.28-.22-6.56.14-9.81A10.22,10.22,0,0,1,78.3,731.28Z" transform="translate(0 -0.11)"/><path class="cls-5" d="M132.29,731.37c3.72-1.43,7.82-.56,11.71-.77,4.18.16,8.92-.85,12.52,1.86,2.29,1.8,4.19,4.54,4,7.58,0,5.34.13,10.69-.09,16-.73,4.75-5.67,8.11-10.34,7.94s-9.49.05-14.23,0-9.59-4-9.61-9,0-10.08,0-15.11C126.07,736.08,129,732.83,132.29,731.37Z" transform="translate(0 -0.11)"/><path class="cls-5" d="M78.39,783.48c3.75-1.07,7.75-.24,11.6-.48,4.55.16,9.92-1.06,13.49,2.57,4.07,3.26,2.87,8.85,3,13.41-.24,4.67,1.18,10.28-2.63,13.92-3,3.36-7.73,3.36-11.84,3.22s-8,.25-12-.25A9.73,9.73,0,0,1,72,806.05c0-4.72,0-9.43,0-14.14C72,788.09,74.87,784.71,78.39,783.48Z" transform="translate(0 -0.11)"/><path class="cls-5" d="M133.23,783.27c5.56-.67,11.23-.07,16.83-.3,5.16-.63,10.62,3.68,10.45,9,0,5,0,10,0,15s-4.68,8.94-9.44,9c-5,.08-10.06.08-15.08,0-4.84,0-9.72-4-9.74-9s0-10.09,0-15.13C126.05,787.77,129.46,784.36,133.23,783.27Z" transform="translate(0 -0.11)"/><path class="cls-5" d="M79.33,835.31c3.5-.77,7.12-.3,10.68-.41,3.22.05,6.52-.3,9.66.59a9.64,9.64,0,0,1,6.83,9.5c0,4.66,0,9.34,0,14,.07,4.88-4.6,9.11-9.39,9S87.67,868,83,868c-5.28.76-10.92-3.42-11-8.9,0-4.75,0-9.5,0-14.25A9.66,9.66,0,0,1,79.33,835.31Z" transform="translate(0 -0.11)"/><path class="cls-5" d="M133.29,835.38c5.51-1,11.18-.28,16.76-.47A10.39,10.39,0,0,1,160.32,842c.46,5,.05,10,.22,15,.9,5.21-3.1,10.64-8.43,11-5.39.08-10.79,0-16.19,0-4.85.22-9.84-3.88-9.69-8.91-.07-4.74,0-9.48,0-14.21C125.82,840.51,129.19,836.52,133.29,835.38Z" transform="translate(0 -0.11)"/><path class="cls-5" d="M79.37,887.38c4.83-.86,9.79-.16,14.67-.41,4-.28,8.39.91,10.74,4.37,2.61,3.32,1.49,7.78,1.71,11.68-.31,4.68,1.25,10.3-2.48,14-3.7,4.44-10,3.24-15,3.36-4-.23-8.4.83-12-1.33a9.51,9.51,0,0,1-4.92-8c0-4.72,0-9.44,0-14.15C71.71,892.48,75.21,888.5,79.37,887.38Z" transform="translate(0 -0.11)"/><path class="cls-5" d="M133.42,887.45c5.1-1,10.38-.19,15.55-.48,4.78-.46,9.79,2.35,11.33,7,.49,4.31.08,8.66.22,13-.12,2.82.53,6-1.2,8.43a9.75,9.75,0,0,1-8.29,5q-7.54,0-15.08,0c-4.89,0-9.84-4.2-9.72-9.27,0-5.07-.06-10.14,0-15.21C126.25,891.83,129.71,888.56,133.42,887.45Z" transform="translate(0 -0.11)"/><path class="cls-5" d="M79.4,939.59c5.53-.56,11.13-.1,16.68-.24a10.12,10.12,0,0,1,10,6.71c.88,5.24.16,10.64.41,16,.63,5.35-4.15,10.47-9.49,10.38-5,.05-10,0-15.08,0-5.06.28-10.06-4.13-10-9.29,0-4.76,0-9.52,0-14.27C71.82,944.52,75.31,940.62,79.4,939.59Z" transform="translate(0 -0.11)"/><path class="cls-5" d="M133.42,939.66c5.52-.71,11.13-.13,16.68-.32,5.37-.52,10.84,4.12,10.42,9.66v14.06c.26,5.07-4.55,9.57-9.55,9.36H136c-5,.14-10.08-4.15-9.76-9.35,0-5-.07-10.07,0-15.1C126.34,944,129.74,940.69,133.42,939.66Z" transform="translate(0 -0.11)"/><path class="cls-5" d="M79.47,991.7c5.15-.73,10.4-.14,15.59-.33a10.77,10.77,0,0,1,9.5,4.08c2.59,2.91,1.84,7,1.94,10.57-.1,3.66.21,7.35-.17,11a10.35,10.35,0,0,1-10.24,7.79c-4.74,0-9.48,0-14.21,0-5.13,0-10.08-4.48-9.89-9.73,0-4.72,0-9.44,0-14.15C71.87,996.58,75.42,992.76,79.47,991.7Z" transform="translate(0 -0.11)"/><path class="cls-5" d="M134.39,991.56c5.52-.4,11.07-.14,16.61-.14a10,10,0,0,1,9.38,7.54c.31,5.32.06,10.68.14,16,.3,3.53-2,6.86-5,8.56-3.53,2-7.73,1.11-11.59,1.28-3.73-.18-7.61.54-11.21-.66-3.39-1.23-6.4-4.38-6.48-8.12-.12-5,0-10.09,0-15.12C126,996.28,130,992.34,134.39,991.56Z" transform="translate(0 -0.11)"/><path class="cls-5" d="M188.44,991.57c5.53-.42,11.09-.15,16.63-.15,4.94,0,10,4.39,9.38,9.61-.17,4.65-.12,9.31.12,14,.59,5.29-4.52,9.68-9.53,9.8s-10.1.06-15.14,0-9.79-4.52-9.65-9.7c-.06-4.74-.07-9.47,0-14.2C180.23,996.31,184.07,992.36,188.44,991.57Z" transform="translate(0 -0.11)"/><path class="cls-5" d="M78.36,1044.31c3.1-1,6.44-.42,9.64-.55,3.63.08,7.28-.26,10.9.21,4.07.92,7.71,4.65,7.58,9,0,4.69,0,9.38,0,14.08.27,5.08-4.34,9.72-9.38,9.73-6.34-.33-12.94.85-19.13-.69a9.61,9.61,0,0,1-6-9c0-4.73,0-9.46,0-14.19C71.92,1049.05,74.83,1045.59,78.36,1044.31Z" transform="translate(0 -0.11)"/><path class="cls-5" d="M132.31,1044.42c3.09-1.18,6.48-.52,9.7-.67,3.69.08,7.4-.23,11.07.19,4.1.89,7.65,4.73,7.44,9,0,5,0,10.07,0,15.1,0,2.92-1.91,5.54-4.23,7.14-3,2.17-6.83,1.46-10.28,1.57-3.94-.11-7.9.2-11.84-.15-4.07-.73-7.81-4.34-7.88-8.61-.09-5,0-10.1,0-15.14C126,1049.06,128.89,1045.73,132.31,1044.42Z" transform="translate(0 -0.11)"/><path class="cls-5" d="M186.36,1044.45c3.7-1.35,7.76-.45,11.61-.68,3.53.18,7.24-.58,10.64.62,3.42,1.38,6.26,4.71,6.15,8.55.06,4.71,0,9.43,0,14.15.25,5.19-4.57,9.87-9.71,9.7-5.07,0-10.14,0-15.21,0a9.68,9.68,0,0,1-9.61-9.66c-.05-4.74-.06-9.47,0-14.2C180.2,1049.12,183,1045.82,186.36,1044.45Z" transform="translate(0 -0.11)"/><path class="cls-5" d="M240.38,1044.47c3.68-1.39,7.74-.48,11.58-.71,4.84.14,10.64-1.09,14.33,2.93,3.52,3.13,2.33,8.15,2.51,12.31-.09,3.6.26,7.24-.22,10.84a9.8,9.8,0,0,1-9.47,7c-5.06,0-10.12,0-15.18,0s-9.83-4.62-9.42-9.75c0-4.7,0-9.4,0-14.09C234.32,1049.21,237,1045.86,240.38,1044.47Z" transform="translate(0 -0.11)"/><path class="cls-5" d="M133.25,1096.21c5.53-1,11.24-.19,16.84-.45,5.14-.37,10.44,3.86,10.41,9.16,0,5,0,10.08,0,15.12.13,3.21-2.09,6.09-4.77,7.65-3.52,2.17-7.81,1.07-11.7,1.31-4.46-.32-9.44,1-13.41-1.6a8.68,8.68,0,0,1-4.38-7.31c-.07-5.07,0-10.14,0-15.21C126.17,1100.8,129.5,1097.33,133.25,1096.21Z" transform="translate(0 -0.11)"/><path class="cls-5" d="M187.36,1096.2c3.15-.83,6.46-.32,9.69-.42,3.27.06,6.57-.26,9.83.21,4.14.87,7.81,4.58,7.86,8.94.07,5,.08,10.1,0,15.16s-4.88,9-9.67,8.92c-5.07,0-10.13,0-15.2,0-4.79,0-9.47-4.07-9.59-9s-.09-10.07,0-15.09C180.36,1100.86,183.56,1097.34,187.36,1096.2Z" transform="translate(0 -0.11)"/><path class="cls-5" d="M241.27,1096.27c3.48-1,7.16-.33,10.73-.49,4,.18,8.3-.79,11.92,1.32,2.73,1.6,5.06,4.48,4.86,7.81,0,5.07.05,10.14,0,15.22.1,5-4.95,9-9.72,8.88-5.05,0-10.1,0-15.15,0-4.71-.06-9.45-4.1-9.38-9s0-10.06,0-15.09C234.44,1100.94,237.64,1097.48,241.27,1096.27Z" transform="translate(0 -0.11)"/><path class="cls-5" d="M295.34,1096.31c3-1.14,6.31-.25,9.43-.06,4.06.5,8.16,0,12.22.47,5.11,1.56,6.81,7.49,6.22,12.3-.53,5.71,1.69,12.75-3,17.21-3.75,3.86-9.41,2.61-14.2,2.77-4.85-.17-10.47,1.1-14.35-2.66-3.63-3-3.17-8.07-3.09-12.31.08-3.39-.18-6.78.14-10.15A10.06,10.06,0,0,1,295.34,1096.31Z" transform="translate(0 -0.11)"/><path class="cls-6" d="M456,606c3.32,2,7.36,1,11,1.24,5.43-.32,12,1.45,16.16-3.18,3.52-3.46,2.24-8.69,2.44-13.08-.23-3.62.64-7.46-.73-10.91a10.1,10.1,0,0,0-9.81-5.86c-5.55.16-11.14-.34-16.66.25a9.9,9.9,0,0,0-7.39,9.41c0,4.74,0,9.49,0,14.23A9.36,9.36,0,0,0,456,606Z" transform="translate(0 -0.11)"/><path class="cls-6" d="M505.31,591c.26,4.42-1.17,9.74,2.45,13.2,3.88,4.3,10.06,2.79,15.18,3,4-.29,8.42.92,12-1.31a8.81,8.81,0,0,0,4.62-7.81c0-4.74,0-9.48,0-14.22.44-5.16-4.43-9.8-9.48-9.68-5.89.14-11.84-.38-17.69.29a9.9,9.9,0,0,0-5.31,3.63C504.14,581.76,505.66,586.73,505.31,591Z" transform="translate(0 -0.11)"/><path class="cls-6" d="M560.91,603a10,10,0,0,0,8.08,4.24c5,0,10,0,15,0a9.72,9.72,0,0,0,9.9-9.14c.05-4.74,0-9.49,0-14.22a9.8,9.8,0,0,0-9.78-9.68c-5.91.18-11.9-.46-17.75.35a10.33,10.33,0,0,0-6.33,5.51c-1.39,3.46-.54,7.3-.75,10.93C559.53,595,558.43,599.5,560.91,603Z" transform="translate(0 -0.11)"/><path class="cls-6" d="M864.64,582.94c-.33-5.18-5.52-9.2-10.6-8.74-5.55.18-11.16-.36-16.68.29a9.92,9.92,0,0,0-7.28,9.42c0,4.72-.07,9.45,0,14.18a9.66,9.66,0,0,0,9.81,9.16c5,0,10.07,0,15.11,0,6.3.18,10.88-6.27,9.69-12.25C864.62,591,864.81,587,864.64,582.94Z" transform="translate(0 -0.11)"/><path class="cls-6" d="M893.91,607.25H909c4.92.19,9.92-4.09,9.66-9.17,0-4.73,0-9.46,0-14.19.39-5.18-4.51-9.79-9.59-9.66-5.89.15-11.84-.39-17.69.29-3.68,1.08-7,4.46-7,8.45-.07,5,0,10.07,0,15.12C884.17,603.09,889,607.42,893.91,607.25Z" transform="translate(0 -0.11)"/><path class="cls-6" d="M938.44,598c-.12,5,4.66,9.25,9.54,9.2s10,0,15.09,0c5,.28,9.9-4.1,9.92-9.19,0-4.72,0-9.44,0-14.15a9.8,9.8,0,0,0-9.9-9.7c-5.89.21-11.87-.47-17.7.38-4,1.21-7.22,5.08-7,9.35C938.41,588.64,938.37,593.34,938.44,598Z" transform="translate(0 -0.11)"/><path class="cls-6" d="M431.2,633.85a10.27,10.27,0,0,0-10.12-7.66c-5.52.15-11.11-.43-16.58.32-4.16,1.1-7.65,4.9-7.66,9.34,0,4.74-.07,9.5,0,14.25.08,5.2,4.9,9.59,10,9.52s10.07,0,15.11,0c5.31-.09,10-5.25,9.32-10.56C431.2,644,431.48,638.9,431.2,633.85Z" transform="translate(0 -0.11)"/><path class="cls-6" d="M482.73,629.26c-3.22-3.59-8.42-3.14-12.78-3.09-3.83.19-7.74-.44-11.51.4-4.06,1.15-7.54,5-7.44,9.33,0,4.73,0,9.46,0,14.2,0,5.14,4.83,9.57,9.91,9.51,5.31,0,10.62.14,15.92-.1A10.22,10.22,0,0,0,485.61,648C484.81,641.82,487.69,634.19,482.73,629.26Z" transform="translate(0 -0.11)"/><path class="cls-6" d="M506.79,655.09A10.08,10.08,0,0,0,515,659.6c5,0,10,0,15.07,0a10,10,0,0,0,9.46-7.73c.27-5.32,0-10.65.12-16,.37-5.54-5.14-10-10.45-9.73-5.56.23-11.23-.55-16.72.45a10.17,10.17,0,0,0-6.91,6.79c-.49,3.84-.09,7.73-.22,11.59C505.49,648.36,504.57,652.21,506.79,655.09Z" transform="translate(0 -0.11)"/><path class="cls-6" d="M908.13,626.18c-5.25.11-10.54-.28-15.77.2-4.35.85-8.29,4.89-8,9.51,0,5-.08,10.09,0,15.13,0,2.77,1.95,5.12,4,6.78,3.94,2.86,9,1.53,13.55,1.82,4-.21,8.43.79,12-1.47,2.39-1.58,4.55-4.15,4.61-7.14.11-5,0-10,.05-15C919.11,630.37,913.49,625.89,908.13,626.18Z" transform="translate(0 -0.11)"/><path class="cls-6" d="M948,659.58c5,.09,10.1,0,15.16,0a10.28,10.28,0,0,0,9.48-7.05c.81-5.78.23-11.71.32-17.55-.46-5.26-5.76-9.17-10.89-8.84-5.21.15-10.45-.33-15.63.27-4.35.86-8.14,4.89-8,9.45,0,4.74,0,9.49,0,14.24C938.38,655.16,943.07,659.47,948,659.58Z" transform="translate(0 -0.11)"/><path class="cls-6" d="M992.69,650.06c-.21,3.18,1.82,6.09,4.3,7.89,3.83,2.65,8.71,1.39,13.06,1.66,4-.22,8.5.84,12.15-1.41a10.06,10.06,0,0,0,5-9.19c-.08-4.74.13-9.49-.11-14.22-.63-5.21-5.86-8.95-10.95-8.63-5.24.16-10.51-.31-15.71.26a10.32,10.32,0,0,0-7.62,7.45C992.53,639.25,992.76,644.66,992.69,650.06Z" transform="translate(0 -0.11)"/><path class="cls-6" d="M352,711.65c5.06,0,10.11,0,15.17,0,5.21.29,10.3-4.27,10.17-9.57,0-4.76,0-9.51,0-14.26a9.33,9.33,0,0,0-4.45-7.68c-3.79-2.55-8.58-1.28-12.85-1.56-3.85.27-8-.76-11.61.82a9.33,9.33,0,0,0-5.56,8.45c0,4.73,0,9.46,0,14.2A9.55,9.55,0,0,0,352,711.65Z" transform="translate(0 -0.11)"/><path class="cls-6" d="M431.19,685.85A9.87,9.87,0,0,0,421,678.57c-5.91.33-12-.68-17.77.58a9.79,9.79,0,0,0-6.45,8.88c0,4.67,0,9.34,0,14a9.9,9.9,0,0,0,10.11,9.63c5,0,10.07,0,15.1,0s9.55-4.56,9.28-9.56C431.22,696.67,431.48,691.25,431.19,685.85Z" transform="translate(0 -0.11)"/><path class="cls-6" d="M480.93,680c-3.55-2.31-8-1.19-11.95-1.44-3.9.25-8-.63-11.72.63a9.66,9.66,0,0,0-6.25,8.7q0,7.1,0,14.19a9.78,9.78,0,0,0,9.87,9.56c5.06,0,10.13,0,15.2,0s9.67-4.47,9.5-9.54c0-4.73,0-9.46,0-14.19A9.24,9.24,0,0,0,480.93,680Z" transform="translate(0 -0.11)"/><path class="cls-6" d="M938.89,705.13a10,10,0,0,0,9.08,6.51c5,0,10.06,0,15.1,0a9.8,9.8,0,0,0,9.93-9.58c0-4.73,0-9.45,0-14.18a9.54,9.54,0,0,0-5-8.07c-3.67-2.11-8.07-1-12.08-1.24-3.85.24-7.94-.69-11.61.75a10.13,10.13,0,0,0-5.62,6.14c-.61,2.78-.25,5.66-.31,8.49C938.59,697.67,937.94,701.49,938.89,705.13Z" transform="translate(0 -0.11)"/><path class="cls-6" d="M1003,711.67c4.71,0,9.43,0,14.15,0a9.9,9.9,0,0,0,10.07-9.65c0-4.67,0-9.34,0-14a9.83,9.83,0,0,0-8.11-9.3c-3.69-.3-7.39,0-11.07-.12-3.2.18-6.63-.59-9.63.78-3.28,1.47-5.91,4.89-5.69,8.59,0,4.7,0,9.4,0,14.11C992.37,707.47,997.64,712.15,1003,711.67Z" transform="translate(0 -0.11)"/><path class="cls-6" d="M1056.89,711.66c5,0,10.07,0,15.11,0s9.44-4.64,9.18-9.61c0-4.72,0-9.44,0-14.15a9.42,9.42,0,0,0-9.1-9.29c-4.37-.1-8.73,0-13.08,0-2.22,0-4.57-.22-6.57.89a9.51,9.51,0,0,0-5.72,8.35c0,4.75,0,9.5,0,14.26C1046.55,707.38,1051.65,712,1056.89,711.66Z" transform="translate(0 -0.11)"/><path class="cls-6" d="M298.93,764c4.71,0,9.41,0,14.12,0,5.22.06,10.19-4.47,10.13-9.79.05-4.43,0-8.86,0-13.29a10.07,10.07,0,0,0-5.18-9c-3.65-2.14-8-1.06-12-1.29-3.86.23-8-.74-11.61.95-3.22,1.51-5.8,4.74-5.81,8.4-.06,4.69,0,9.39,0,14.09C288.27,759.57,293.6,764.15,298.93,764Z" transform="translate(0 -0.11)"/><path class="cls-6" d="M353,764c4.7,0,9.41,0,14.11,0,5.28.06,10.5-4.51,10.25-10,0-4.74,0-9.48,0-14.21-.19-5.59-5.83-9.81-11.23-9.26-5.57.34-11.31-.68-16.76.59-3.54,1.3-6.44,4.72-6.46,8.59,0,4.76,0,9.51,0,14.28C342.42,759.5,347.67,764.18,353,764Z" transform="translate(0 -0.11)"/><path class="cls-6" d="M396.84,754.14a9.68,9.68,0,0,0,5.47,8.67c3.57,2,7.78,1,11.66,1.19,4-.26,8.25.82,11.93-1.12a9.4,9.4,0,0,0,5.43-8.86c-.05-4.69,0-9.38,0-14.07.16-3.18-2-6-4.43-7.79-3.86-2.46-8.62-1.33-12.91-1.56-3.82.23-8-.78-11.49,1a10,10,0,0,0-5.67,9.3C396.83,745.35,396.77,749.74,396.84,754.14Z" transform="translate(0 -0.11)"/><path class="cls-6" d="M1002.87,764c4.73,0,9.47,0,14.22,0s9.53-3.81,10-8.71c.22-4.77,0-9.54.1-14.3a10,10,0,0,0-5.11-9c-3.65-2.2-8.06-1.12-12.07-1.35-3.87.23-8-.72-11.63.89-3.17,1.5-5.8,4.81-5.69,8.43,0,4.72,0,9.44,0,14.16C992.3,759.57,997.55,764.2,1002.87,764Z" transform="translate(0 -0.11)"/><path class="cls-6" d="M1049.8,761.17c4.08,4,10.12,2.61,15.25,2.83,3.57-.2,7.46.73,10.74-1.15a9.37,9.37,0,0,0,5.39-8.83c-.09-5.12.12-10.25-.1-15.36-.78-5.12-6.08-8.67-11.12-8.09-5.53.38-11.26-.73-16.66.65-4.85,1.63-7.38,6.91-6.63,11.81C1047.34,749,1044.7,756.54,1049.8,761.17Z" transform="translate(0 -0.11)"/><path class="cls-6" d="M1135.46,747c-.11-4.58,1-10.16-3-13.5-3.78-4-9.62-2.76-14.5-2.9-3.54.2-7.27-.61-10.66.64a10.18,10.18,0,0,0-6.5,9.72c.07,4.74-.14,9.5.11,14.25.51,5.78,6.6,9.6,12.11,8.82,6.56-.71,14.57,2.05,19.77-3.27C1136.56,757.15,1135.26,751.64,1135.46,747Z" transform="translate(0 -0.11)"/><path class="cls-6" d="M268.47,789.2a9.82,9.82,0,0,0-9.4-6.22c-5.9.22-11.87-.37-17.74.3-3.69,1.14-7,4.59-6.81,8.64,0,5,0,10.07,0,15.11s4.72,8.91,9.46,9.05,9.35,0,14,0a10.65,10.65,0,0,0,9.42-4.63c2-2.75,1.2-6.32,1.36-9.47C268.63,797.75,269.17,793.43,268.47,789.2Z" transform="translate(0 -0.11)"/><path class="cls-6" d="M298.87,816.11c4.75,0,9.5,0,14.26,0a10.12,10.12,0,0,0,10.05-9.9c0-4.43,0-8.85,0-13.28.29-5.37-4.68-10.41-10.09-9.93-5.88.24-11.83-.42-17.67.33-3.69,1.17-6.8,4.56-6.88,8.55,0,5.09-.09,10.19,0,15.29C288.9,812.25,293.87,816.25,298.87,816.11Z" transform="translate(0 -0.11)"/><path class="cls-6" d="M367.12,783c-5.87.27-11.83-.43-17.64.35a9.41,9.41,0,0,0-6.64,8.4c0,5.14,0,10.29,0,15.44.21,5.05,5.09,9.13,10.06,8.94,4.73,0,9.47,0,14.2,0,5.35.12,10.48-4.59,10.21-10.06,0-4.73,0-9.47,0-14.19C377.12,786.75,372.14,782.55,367.12,783Z" transform="translate(0 -0.11)"/><path class="cls-6" d="M1076,784c-3.06-1.69-6.68-.78-10-1-4.17.22-8.44-.47-12.54.34a9.64,9.64,0,0,0-6.8,8.52c-.09,4.38,0,8.77,0,13.16a10,10,0,0,0,4.17,9.13c5.37,3.53,12.16,1.33,18.18,2,5.26.76,11-2.45,12-7.89.25-5.1,0-10.21.12-15.3A9.3,9.3,0,0,0,1076,784Z" transform="translate(0 -0.11)"/><path class="cls-6" d="M1100.9,807.21a10.1,10.1,0,0,0,10,8.88c4.75,0,9.51,0,14.27,0,5,.13,10-3.89,10.26-9,.09-5.05,0-10.1,0-15.14a9.19,9.19,0,0,0-4.79-7.69c-3.18-2-7.1-1.07-10.64-1.27-4.15.24-8.42-.51-12.49.36a9.9,9.9,0,0,0-6.73,9.57C1100.87,797.68,1100.67,802.45,1100.9,807.21Z" transform="translate(0 -0.11)"/><path class="cls-6" d="M1155.23,807c-.15,3.32,2.21,6.24,5,7.79,3.58,2,7.83,1.07,11.76,1.27,4.63-.21,9.93,1,13.86-2.19a9.63,9.63,0,0,0,3.65-8.9c-.15-5,.19-10-.17-15a9.63,9.63,0,0,0-9.26-7c-5.89.11-11.79-.21-17.66.15-3.83,1.09-7.48,4.51-7.19,8.76C1155.18,796.94,1155.17,802,1155.23,807Z" transform="translate(0 -0.11)"/><path class="cls-6" d="M263.83,836.2c-3.61-2-7.85-1.16-11.78-1.3-3.54.16-7.19-.47-10.66.5-3.67,1.15-6.92,4.59-6.86,8.59,0,5,0,10,0,15-.18,4.91,4.61,9.19,9.42,9,5.83-.08,11.68.14,17.51-.11,3.9-1,7.58-4.51,7.34-8.79,0-5.09,0-10.18,0-15.26C268.88,840.57,266.53,837.76,263.83,836.2Z" transform="translate(0 -0.11)"/><path class="cls-6" d="M323.18,851c0-4.5.78-9.92-3.05-13.2-3.66-3.85-9.35-2.8-14.1-2.91-3.55.18-7.24-.53-10.68.59a9.85,9.85,0,0,0-6.81,9.48c0,4.72-.06,9.45,0,14.18a9.19,9.19,0,0,0,4.73,7.58c3.51,2.19,7.82,1,11.71,1.27,5.13-.38,11.3,1.48,15.33-2.74C324.27,861.55,323,855.82,323.18,851Z" transform="translate(0 -0.11)"/><path class="cls-6" d="M374.73,838.26c-3.38-4-9-3.42-13.68-3.36-3.89.21-7.92-.58-11.7.61-4.76,1.53-7.32,6.73-6.54,11.53.75,6-2,13.44,2.77,18.32,3.81,3.94,9.58,2.35,14.44,2.64,4.85-.25,10.57,1.23,14.4-2.66,3.8-3.39,2.82-8.8,2.88-13.33C377.09,847.39,378.44,841.88,374.73,838.26Z" transform="translate(0 -0.11)"/><path class="cls-6" d="M1055.05,868c5.66.09,11.33,0,17,0a9.26,9.26,0,0,0,9.11-8.86c0-5.12,0-10.24,0-15.35-.23-5-5.1-9-10-8.89-5.61.15-11.29-.44-16.85.35-3.91,1-7.39,4.5-7.41,8.7,0,5.4-.09,10.81.25,16.21C1047.26,864.31,1051.16,867.47,1055.05,868Z" transform="translate(0 -0.11)"/><path class="cls-6" d="M1110.93,868c5-.06,10.11,0,15.17,0a9.51,9.51,0,0,0,9.35-8.92c0-5.07.06-10.13,0-15.19-.31-5.14-5.31-9.13-10.33-9-5.61.17-11.3-.47-16.85.37a10.08,10.08,0,0,0-7.42,9.5c0,4.75-.07,9.51,0,14.27A9.65,9.65,0,0,0,1110.93,868Z" transform="translate(0 -0.11)"/><path class="cls-6" d="M1187.43,838.64c-2.44-3.17-6.67-4-10.45-3.77-4.88.27-9.85-.48-14.66.44-3.73,1.1-7.18,4.48-7.1,8.57,0,5.07,0,10.15,0,15.23-.26,5,4.83,9.23,9.66,8.92,5.08-.06,10.17,0,15.25,0a9.46,9.46,0,0,0,7.86-4.15c2.5-3.45,1.16-7.94,1.48-11.89C1189.11,847.53,1190.72,842.3,1187.43,838.64Z" transform="translate(0 -0.11)"/><path class="cls-6" d="M313.14,887c-5.6.13-11.27-.38-16.83.27-4.28,1.12-8,5.07-7.77,9.69,0,4.68-.06,9.37,0,14.06.05,5.33,5.27,9.69,10.47,9.39,4.66,0,9.33,0,14,0a10.14,10.14,0,0,0,10-8.43c.27-5.05.07-10.13.11-15.18C323.24,891.49,318.32,887,313.14,887Z" transform="translate(0 -0.11)"/><path class="cls-6" d="M377.18,895c-1-5-6.17-8.39-11.13-8-5.24.2-10.54-.37-15.73.31-4.22,1.16-7.86,5.12-7.5,9.67.08,5.11-.12,10.22.1,15.33.74,5.13,6,8.76,11.1,8.14,5.55-.39,11.3.73,16.72-.65a10,10,0,0,0,6.58-9.74C377.22,905,377.5,900,377.18,895Z" transform="translate(0 -0.11)"/><path class="cls-6" d="M396.86,911a10.08,10.08,0,0,0,10.07,9.41c5.06,0,10.12.05,15.18,0,4.79-.15,9.25-4.45,9.2-9.3s0-9.41,0-14.11c.41-5.53-4.9-10.16-10.23-10-5.55.18-11.16-.43-16.65.33-4,1.11-7.45,4.66-7.6,8.95C396.78,901.18,396.77,906.09,396.86,911Z" transform="translate(0 -0.11)"/><path class="cls-6" d="M1027,894.88c-1-4.9-6-8.2-10.87-7.9-5.27.2-10.6-.37-15.83.3-3.56.94-6.85,3.79-7.35,7.57-.32,3.71-.16,7.45-.22,11.18s-.59,8.11,2.4,11c3.35,4.23,9.18,3.33,13.93,3.35,5-.25,10.77,1.2,14.81-2.55,3.85-3.13,3.49-8.41,3.35-12.84C1027.05,901.63,1027.47,898.22,1027,894.88Z" transform="translate(0 -0.11)"/><path class="cls-6" d="M1070,887c-5.2.22-10.46-.4-15.61.32-4.27,1.14-8,5.09-7.74,9.7,0,4.71,0,9.43,0,14.15.17,5.6,5.85,9.9,11.29,9.28,4.33,0,8.67,0,13,0,5.08.28,10.11-4.06,10.13-9.24,0-5.46.13-10.93-.09-16.38C1080,889.88,1074.94,886.53,1070,887Z" transform="translate(0 -0.11)"/><path class="cls-6" d="M1124.09,887c-5.23.23-10.52-.41-15.69.34-4.18,1.18-7.65,5-7.58,9.5s0,8.84,0,13.26a10.1,10.1,0,0,0,5.1,9c3.64,2.19,8.06,1,12.09,1.31,4.06-.27,8.49.86,12.23-1.23a9.68,9.68,0,0,0,5.21-8.15c0-5.06.08-10.11,0-15.15C1135,890.4,1129.34,886.52,1124.09,887Z" transform="translate(0 -0.11)"/><path class="cls-6" d="M367.08,939.35c-5.57.1-11.17-.26-16.72.18-4.24,1-7.79,5-7.54,9.45,0,4.71,0,9.42,0,14.14a9.4,9.4,0,0,0,9.09,9.29c5,0,10.07,0,15.11,0,5.16.4,10.25-4,10.27-9.24,0-4.75,0-9.5,0-14.25C377.46,943.6,372.31,939.05,367.08,939.35Z" transform="translate(0 -0.11)"/><path class="cls-6" d="M421.13,939.34c-5.57.14-11.17-.3-16.71.22a10,10,0,0,0-7.58,9.26c0,4.75-.06,9.51,0,14.27a9.76,9.76,0,0,0,10.1,9.34c5,0,10.06,0,15.09,0s9.51-4.43,9.28-9.36c0-4.72,0-9.44,0-14.16C431.61,943.53,426.37,938.93,421.13,939.34Z" transform="translate(0 -0.11)"/><path class="cls-6" d="M475.06,939.34c-5.54.15-11.13-.33-16.64.26-4.1,1-7.49,4.95-7.42,9.27,0,4.74,0,9.49,0,14.25a9.52,9.52,0,0,0,4.28,7.65c4,2.76,9.13,1.29,13.67,1.65,4-.28,8.49.91,12-1.49a9.19,9.19,0,0,0,4.58-7.81c0-4.75,0-9.5,0-14.24C485.76,943.42,480.37,938.92,475.06,939.34Z" transform="translate(0 -0.11)"/><path class="cls-6" d="M994,967.85a9.34,9.34,0,0,0,7.94,4.56c5,0,10,0,15.07,0a9.81,9.81,0,0,0,10.14-9.28q0-7.14,0-14.28a9.89,9.89,0,0,0-10.05-9.52c-5.59.08-11.19-.23-16.75.16A9.88,9.88,0,0,0,994,944c-2.3,3.58-1,8-1.3,12C993,960,991.7,964.35,994,967.85Z" transform="translate(0 -0.11)"/><path class="cls-6" d="M1071.07,939.34c-5.55.13-11.13-.27-16.65.2a10.27,10.27,0,0,0-7.76,11.45c.58,5.59-1.31,11.75,1.49,16.92a10.41,10.41,0,0,0,9.89,4.53c4.68-.07,9.36,0,14,0a9.41,9.41,0,0,0,9.09-9.35c0-4.7,0-9.4,0-14.1C1081.47,943.62,1076.32,938.93,1071.07,939.34Z" transform="translate(0 -0.11)"/><path class="cls-6" d="M431.3,1007c-.21-3.85.95-8.29-1.81-11.5a10.34,10.34,0,0,0-9.44-4.13c-5.19.19-10.43-.39-15.58.32a10.12,10.12,0,0,0-7.64,9.38c0,4.64,0,9.3,0,13.95a9.87,9.87,0,0,0,5.6,8.67c3.56,1.86,7.7.92,11.55,1.13,4.95-.16,11,1.11,14.69-3.14C432.69,1017.82,431,1011.92,431.3,1007Z" transform="translate(0 -0.11)"/><path class="cls-6" d="M476,991.44c-5.53-.06-11.09-.22-16.61.08-4.43.72-8.3,4.72-8.37,9.29q-.06,7.16,0,14.33c-.07,5.21,4.8,9.61,9.89,9.67s10.18.09,15.27,0c4.93-.25,9.53-4.58,9.4-9.64q0-7.07,0-14.13C485.67,995.91,481,991.53,476,991.44Z" transform="translate(0 -0.11)"/><path class="cls-6" d="M539.59,1008c-.35-4.18,1.15-9.07-1.83-12.57a10.07,10.07,0,0,0-8.65-4c-5.23.1-10.48-.23-15.7.17-4.33.77-8.32,4.74-8.1,9.32,0,4.73,0,9.46,0,14.2-.36,5.22,4.59,9.61,9.61,9.73,4.7.08,9.41,0,14.11,0a10.33,10.33,0,0,0,8.76-4.11C540.75,1017.15,539.23,1012.22,539.59,1008Z" transform="translate(0 -0.11)"/><path class="cls-6" d="M887.08,1021.76c3.54,3.94,9.22,3,14,3.06,5-.17,11,1.09,14.89-3,4.23-3.78,2.38-9.85,2.76-14.79-.27-3.7.91-7.94-1.5-11.13a10.32,10.32,0,0,0-9.11-4.52c-5.22.09-10.45-.23-15.65.16a9.82,9.82,0,0,0-6.2,3.91c-3,3.5-1.49,8.35-1.82,12.51C884.68,1012.59,883.15,1018.21,887.08,1021.76Z" transform="translate(0 -0.11)"/><path class="cls-6" d="M940.7,1021.15c3.37,4.41,9.37,3.71,14.27,3.67,5.19-.16,11.48,1.16,15.37-3.27,3.73-3.55,2.48-9,2.66-13.54-.25-4.07.94-8.7-1.7-12.21a10.5,10.5,0,0,0-9.24-4.43c-5.2.14-10.43-.28-15.6.23-4,.8-7.65,4.31-8,8.51-.18,3.62,0,7.27-.07,10.91C938.36,1014.48,938,1018.46,940.7,1021.15Z" transform="translate(0 -0.11)"/><path class="cls-6" d="M1017.12,991.4c-5.56.07-11.15-.29-16.69.19-4.62,1-8.36,5.6-7.76,10.39.12,5.08-.17,10.17.15,15.24a10.2,10.2,0,0,0,9.08,7.56c5.07.1,10.15,0,15.24,0s10.1-4.53,10-9.85c0-4.65,0-9.29,0-13.93C1027.12,995.8,1022.29,991.33,1017.12,991.4Z" transform="translate(0 -0.11)"/><path class="cls-6" d="M477,1043.84c-6.54.13-13.29-.75-19.7.5a9.61,9.61,0,0,0-6.3,8.56c0,5-.08,10.11,0,15.16.41,5.77,6.42,9.68,11.94,8.75,4.38-.08,8.76,0,13.14,0,5,0,9.68-4.58,9.45-9.67,0-4.71,0-9.42,0-14.12S481.5,1044.3,477,1043.84Z" transform="translate(0 -0.11)"/><path class="cls-6" d="M537.2,1046.84c-3.87-4.4-10.12-2.83-15.26-3.08-3.51.21-7.23-.61-10.59.65a9.64,9.64,0,0,0-6.06,10.55c.15,4.87-.24,9.78.2,14.65a9.82,9.82,0,0,0,9.46,7.18h15.12a9.88,9.88,0,0,0,9.21-6.58c.64-3.35.19-6.8.31-10.18C539.32,1055.6,540.77,1050.32,537.2,1046.84Z" transform="translate(0 -0.11)"/><path class="cls-6" d="M566.38,1076.45c5.5.78,11.13.11,16.69.36a9.94,9.94,0,0,0,10.8-8.76c.16-4.71,0-9.42.07-14.13a9.49,9.49,0,0,0-4.36-8.52c-3.67-2.63-8.4-1.37-12.59-1.64-3.85.23-7.9-.67-11.59.71-3.4,1.38-6.14,4.7-6.08,8.49q-.06,7.1,0,14.2C559.18,1071.42,562.39,1075.25,566.38,1076.45Z" transform="translate(0 -0.11)"/><path class="cls-6" d="M861.57,1046.33c-3.94-3.74-9.67-2.33-14.54-2.57-3.55.21-7.28-.61-10.69.61a9.64,9.64,0,0,0-6.25,8.54c-.05,4.73-.05,9.48,0,14.22a9.79,9.79,0,0,0,9.8,9.67c5.07,0,10.14,0,15.22,0a9.93,9.93,0,0,0,9.11-6.56c.92-3.33.31-6.85.47-10.25C864.57,1055.34,865.75,1049.62,861.57,1046.33Z" transform="translate(0 -0.11)"/><path class="cls-6" d="M915.75,1046.31c-4-3.77-9.78-2.29-14.71-2.55-3.56.22-7.32-.63-10.72.68s-6.11,4.71-5.91,8.46c0,5.32-.12,10.65.08,16a9.56,9.56,0,0,0,9.44,7.92c5.39,0,10.78.07,16.17,0,5.65-.41,9.64-6.23,8.61-11.68C917.86,1058.88,920.93,1051.13,915.75,1046.31Z" transform="translate(0 -0.11)"/><path class="cls-6" d="M973,1060c-.13-4.51,1-9.86-2.7-13.33-4-4.26-10.17-2.66-15.31-2.93-3.51.18-7.22-.6-10.56.73s-6.13,4.74-6,8.52c0,4.71,0,9.42,0,14.14-.2,4.5,3.42,8.54,7.72,9.46,3.58.4,7.19.08,10.79.17,4.44-.08,9.71.91,13.11-2.74C974.06,1070.45,972.87,1064.77,973,1060Z" transform="translate(0 -0.11)"/><path class="cls-6" d="M826.85,1239.23c-7.33-2.55-15.18-2.22-22.83-2.23H630c-7.66.08-15.34-.22-23,.26-20.06,1.63-38.06,16.93-43.21,36.34-2.32,7.55-1.69,15.55-1.79,23.34v176c0,13.83-.22,27.69.55,41.5a154.76,154.76,0,0,0,15.9,54.16c9.58,17.8,22.08,34.34,38,46.95a148.63,148.63,0,0,0,93.2,34.42h5a150.91,150.91,0,0,0,67-16.94c17-9.35,32.92-21.24,45.1-36.42A147.65,147.65,0,0,0,860.71,1520c1.46-9.59,1.21-19.34,1.29-29q0-102,0-204.08C862.47,1265.57,847.23,1245.29,826.85,1239.23Z" transform="translate(0 -0.11)"/><path class="cls-6" d="M963.12,939.35c-5.59.08-11.19-.23-16.75.16A9.88,9.88,0,0,0,940,944c-2.3,3.58-1,8-1.3,12,.31,3.91-1,8.31,1.32,11.81a9.34,9.34,0,0,0,7.94,4.56c5,0,10,0,15.07,0a9.81,9.81,0,0,0,10.14-9.28q0-7.14,0-14.28A9.89,9.89,0,0,0,963.12,939.35Z" transform="translate(0 -0.11)"/><path class="cls-6" d="M779.48,117.46a74.9,74.9,0,0,0-77.94-41.63c-26.77,3.47-50.61,22.75-59.79,48.11a74.95,74.95,0,0,0,37,93.18c24.49,12.47,55.76,9.73,77.71-6.82a74.91,74.91,0,0,0,23-92.84Z" transform="translate(0 -0.11)"/><path class="cls-7" d="M695.27,107.26c3.73-.34,7.8-.71,11.19,1.26A12.43,12.43,0,0,1,713,119.86Q713,150,713,180a12.47,12.47,0,0,1-6.66,11.5c-3.77,2.11-8.28,1.48-12.38,1a43,43,0,0,1,1.31-85.31Z" transform="translate(0 -0.11)"/><path class="cls-7" d="M615.38,1275.48c8.15-1,16.42-.24,24.63-.48,16.7,0,33.41-.09,50.11.06,11.86.25,22.13,11,21.86,22.89q.07,139,0,278.08a23.09,23.09,0,0,1-24,24,92,92,0,0,1-91-90.94q0-105.54,0-211.09A23.09,23.09,0,0,1,615.38,1275.48Z" transform="translate(0 -0.11)"/></svg>